<svg width="54" height="54" viewBox="0 0 54 54" fill="none" xmlns="http://www.w3.org/2000/svg">
<rect opacity="0.1" width="54" height="54" rx="27" fill="#F4C358"/>
<g clip-path="url(#clip0)">
<path d="M40.9816 18.3133C40.704 15.5992 40.2618 13.4861 39.5621 12.6555C36.6774 9.24026 16.4707 8.99034 14.1764 12.6555C13.6152 13.5534 13.2216 15.6591 12.9574 18.3178C12.1051 18.418 11.4414 19.1356 11.4414 20.0141V23.3388C11.4414 24.0781 11.9098 24.7014 12.5638 24.9446C12.4089 30.1811 12.5347 35.6444 12.7666 38.3614C12.7666 40.4589 14.1757 40.1109 14.1757 40.1109H15.4964V42.3752C15.4964 43.2732 16.422 43.9998 17.5624 43.9998C18.7043 43.9998 19.6299 43.2732 19.6299 42.3752V40.1109H34.9953V42.3752C34.9953 43.2732 35.9202 43.9998 37.0621 43.9998C38.2025 43.9998 39.1281 43.2732 39.1281 42.3752V40.1109H39.5621C39.5621 40.1109 41.2203 40.3384 41.3266 39.3507C41.3266 36.6411 41.4972 30.6361 41.3565 24.9678C42.0517 24.75 42.559 24.1095 42.559 23.3388V20.0141C42.5597 19.1147 41.8638 18.3851 40.9816 18.3133ZM19.1114 13.1426H34.6271V15.49H19.1114V13.1426ZM19.3329 37.4373C18.1146 37.4373 17.1277 36.4495 17.1277 35.2313C17.1277 34.0139 18.1146 33.0269 19.3329 33.0269C20.5511 33.0269 21.5388 34.0139 21.5388 35.2313C21.5388 36.4495 20.5518 37.4373 19.3329 37.4373ZM34.5441 37.4373C33.3266 37.4373 32.3374 36.4495 32.3374 35.2313C32.3374 34.0139 33.3259 33.0269 34.5441 33.0269C35.7623 33.0269 36.7493 34.0139 36.7493 35.2313C36.75 36.4495 35.7623 37.4373 34.5441 37.4373ZM37.3479 27.7844H16.3906V16.792H37.3479V27.7844Z" fill="#F4C358"/>
</g>
<defs>
<clipPath id="clip0">
<rect width="34" height="34" fill="white" transform="translate(10 10)"/>
</clipPath>
</defs>
</svg>
