<svg width="35" height="35" viewBox="0 0 35 35" fill="none" xmlns="http://www.w3.org/2000/svg">
<rect x="0.5" y="0.5" width="34" height="34" fill="white" stroke="#1F2C38"/>
<g clip-path="url(#clip0)">
<path d="M24.1704 10.61C24.4787 10.2989 24.8975 10.1224 25.3354 10.1192C25.7733 10.116 26.1947 10.2862 26.5075 10.5927C26.8203 10.8993 26.999 11.3172 27.0046 11.7551C27.0102 12.193 26.8423 12.6153 26.5374 12.9297L17.7174 23.9558C17.5659 24.119 17.3831 24.2499 17.1798 24.3408C16.9766 24.4317 16.7571 24.4807 16.5345 24.4849C16.3119 24.4891 16.0907 24.4484 15.8842 24.3653C15.6776 24.2821 15.49 24.1581 15.3324 24.0008L9.48468 18.1553C9.17393 17.8444 8.99941 17.4228 8.99951 16.9833C8.99962 16.5437 9.17434 16.1222 9.48524 15.8114C9.79614 15.5006 10.2177 15.3261 10.6573 15.3262C11.0969 15.3263 11.5184 15.5011 11.8292 15.812L16.4541 20.438L24.1266 10.6617C24.1405 10.6439 24.1555 10.627 24.1716 10.6111L24.1704 10.61Z" fill="#1F2C38"/>
</g>
<defs>
<clipPath id="clip0">
<rect width="18" height="18" fill="white" transform="translate(9 9)"/>
</clipPath>
</defs>
</svg>
