<svg width="46" height="33" viewBox="0 0 46 33" fill="none" xmlns="http://www.w3.org/2000/svg">
<g clip-path="url(#clip0)">
<path d="M45.1441 9.17973V26.335C45.1441 29.3009 42.4513 31.7043 39.1282 31.7043H7.61647C6.02096 31.7043 4.49079 31.1386 3.3626 30.1316C2.2344 29.1247 1.60059 27.759 1.60059 26.335V9.17973L22.6825 19.5297C23.1122 19.7404 23.6336 19.7404 24.0622 19.5297L45.1441 9.17871V9.17973ZM39.1282 1.02246C40.6987 1.02259 42.2068 1.5708 43.3304 2.54998C44.4541 3.52916 45.1042 4.86169 45.1418 6.26291L23.3724 16.9504L1.60288 6.26189L1.60517 6.16985C1.66934 4.78534 2.33075 3.47658 3.45108 2.51726C4.57141 1.55793 6.06391 1.02233 7.61647 1.02246H39.1282Z" fill="white"/>
</g>
<defs>
<clipPath id="clip0">
<rect width="44.8168" height="32.7273" fill="white" transform="translate(0.963867)"/>
</clipPath>
</defs>
</svg>
