<svg width="50" height="50" viewBox="0 0 50 50" fill="none" xmlns="http://www.w3.org/2000/svg">
<g opacity="0.6">
<circle opacity="0.5" r="23" transform="matrix(1 0 0 -1 25 25)" stroke="#1F2C38" stroke-width="4"/>
<path opacity="0.5" d="M23.8335 16C23.8335 15.1716 24.5051 14.5 25.3335 14.5C26.1619 14.5 26.8335 15.1716 26.8335 16L23.8335 16ZM26.3942 34.394C25.8084 34.9798 24.8586 34.9798 24.2728 34.394L14.7269 24.8481C14.1411 24.2623 14.1411 23.3125 14.7269 22.7267C15.3127 22.1409 16.2624 22.1409 16.8482 22.7267L25.3335 31.212L33.8188 22.7267C34.4046 22.1409 35.3543 22.1409 35.9401 22.7267C36.5259 23.3125 36.5259 24.2623 35.9401 24.8481L26.3942 34.394ZM26.8335 16L26.8335 33.3333L23.8335 33.3333L23.8335 16L26.8335 16Z" fill="#1F2C38"/>
</g>
</svg>
