<svg width="557" height="553" viewBox="0 0 557 553" fill="none" xmlns="http://www.w3.org/2000/svg">
<path opacity="0.3" fill-rule="evenodd" clip-rule="evenodd" d="M336.032 548.665C359.791 557.851 362.774 543.968 362.774 543.968C362.893 542.456 362.893 540.938 362.774 539.426C362.311 536.381 361.54 533.336 361.18 530.291C361.18 528.794 360.923 526.368 361.745 525.852C364.199 524.184 366.208 521.938 367.598 519.311C368.987 516.684 369.714 513.756 369.717 510.782C370.676 505.48 373.551 500.721 377.79 497.414C386.361 490.251 395.305 483.549 404.583 477.337C411.115 472.176 417.594 467.015 424.177 461.854C426.902 459.789 429.731 457.777 432.611 455.97C433.766 455.416 434.797 454.634 435.644 453.671C436.491 452.708 437.135 451.583 437.538 450.364C437.942 449.144 438.096 447.856 437.991 446.576C437.887 445.296 437.526 444.049 436.93 442.912C436.191 440.925 435.243 439.022 434.102 437.235C429.727 429.109 427.364 420.046 427.211 410.81C427.211 409.675 427.211 408.488 426.902 407.352C426.479 404.639 426.898 401.86 428.104 399.395C429.309 396.929 431.242 394.896 433.639 393.572C447.101 384.757 458.334 372.918 466.449 358.992C470.891 350.423 473.401 340.979 473.803 331.328C474.214 322.761 475.397 314.296 476.169 305.522C476.185 303.246 476.065 300.971 475.809 298.71L477.814 300.258C480.437 302.322 482.957 304.593 485.58 306.451C488.261 308.385 490.304 311.082 491.442 314.193C493.385 319.531 495.741 324.708 498.488 329.677C501.678 334.852 502.851 341.028 501.779 347.018C500.136 357.33 500.626 367.871 503.219 377.985C504.187 382.485 504.099 387.15 502.962 391.611C500.138 401.342 500.98 411.777 505.327 420.926C506.201 422.629 505.327 425.106 505.79 427.223C505.836 429.227 506.31 431.198 507.179 433.003C509.956 436.977 513.658 440.383 516.075 444.564C518.777 449.003 520.756 453.847 521.938 458.912C523.012 463.554 525.233 467.85 528.397 471.404C531.56 474.958 535.564 477.655 540.04 479.247C542.895 480.465 545.88 481.348 548.937 481.879C550.57 481.926 552.201 481.717 553.771 481.26C551.501 476.152 547.826 471.801 543.177 468.718C547.342 469.492 549.605 473.467 553.154 472.692C551.714 468.512 550.274 464.589 548.988 460.615C547.702 456.641 546.622 452.357 545.542 448.59C549.141 452.418 551.739 457.082 553.102 462.164C553.574 461.233 553.92 460.244 554.131 459.222C554.688 450.554 551.95 441.996 546.468 435.274C544.126 432.367 542.043 429.258 540.246 425.984C539.448 424.219 538.861 422.365 538.497 420.461L539.371 419.636L549.399 425.313C547.342 418.707 545.44 412.72 543.588 406.681L544.514 405.804L553.102 408.9C552.331 404.41 551.662 400.643 550.839 396.204L555.982 397.649L556.702 397.133C555.793 395.574 554.761 394.089 553.616 392.694C552.662 391.807 552.078 390.589 551.982 389.286C551.887 387.984 552.287 386.693 553.102 385.675C556.292 380.65 557.587 374.646 556.753 368.747C555.336 351.488 550.714 334.649 543.125 319.096C538.651 310.761 532.4 303.518 524.818 297.884C514.173 289.832 504.247 281.11 493.396 273.214C486.012 267.728 476.791 265.34 467.683 266.556C466.659 266.759 465.646 267.017 464.649 267.33C464.649 267.691 464.649 268.001 464.649 268.31C465.704 268.757 466.786 269.137 467.889 269.446C473.597 270.685 479.357 271.562 484.963 273.007C492.615 275.161 499.545 279.352 505.019 285.136C511.739 290.882 517.593 297.575 522.401 305.006C526.721 313.058 531.297 321.006 535.72 329.006C536.252 330.347 536.682 331.728 537.006 333.135C528.469 322.09 524.509 321.161 520.241 326.425C518.184 321.264 516.487 316.103 514.173 311.303C512.292 307.981 510.214 304.775 507.95 301.703C506.047 298.267 503.952 294.941 501.676 291.742C498.808 288.332 495.622 285.204 492.162 282.4C491.697 282.012 491.155 281.727 490.572 281.564C489.988 281.402 489.377 281.366 488.779 281.459C488.181 281.551 487.609 281.771 487.102 282.102C486.595 282.434 486.163 282.87 485.837 283.381C479.923 278.22 475.552 269.807 464.803 271.407C456.836 260.454 445.332 252.611 432.251 249.214C425.102 246.685 417.903 243.176 410.24 244.208L409.726 245.24C410.588 245.864 411.52 246.384 412.503 246.788C421.453 248.723 430.293 251.135 438.988 254.014C446.727 257.026 453.664 261.801 459.251 267.963C464.838 274.125 468.921 281.506 471.18 289.523C471.563 290.449 471.597 291.484 471.275 292.434C470.954 293.384 470.298 294.184 469.432 294.684C467.16 296.507 465.581 299.058 464.958 301.91C461.981 314.855 454.574 326.343 444.027 334.373C437.548 339.896 430.502 344.696 423.457 349.857C423.236 350.054 422.972 350.196 422.685 350.27C421.451 350.27 419.291 350.27 419.137 350.837C418.603 352.856 418.378 354.944 418.469 357.031C418.469 357.444 419.754 358.166 420.474 358.166C421.921 358.461 423.423 358.279 424.758 357.647C426.093 357.014 427.188 355.965 427.879 354.657C427.879 354.295 428.394 354.089 429.217 353.211L428.342 356.876C435.859 354.604 442.815 350.771 448.758 345.625C454.885 340.825 459.947 334.795 463.621 327.922L464.701 328.541C463.67 331.406 462.415 334.185 460.946 336.851C457.637 342.601 453.797 348.026 449.478 353.057C446.149 356.045 442.195 358.25 437.908 359.508C436.722 359.839 435.654 360.499 434.826 361.412C433.999 362.325 433.444 363.454 433.228 364.669C432.868 365.96 432.354 367.198 431.942 368.334C431.428 366.992 431.274 365.185 430.348 364.566C429.422 363.947 427.828 364.566 426.491 364.566C415.274 366.725 403.867 367.728 392.447 367.56C379.869 366.586 367.407 364.461 355.214 361.211C349.611 360.198 343.834 360.862 338.604 363.121C338.604 359.663 338.295 356.308 338.089 352.799C337.369 342.476 342.461 333.754 348.375 325.651C350.996 322.791 354.402 320.775 358.164 319.856C361.925 318.938 365.874 319.158 369.511 320.49C376.016 322.58 383.01 322.58 389.516 320.49C393.946 319.188 398.277 317.567 402.475 315.638C404.789 314.709 406.332 310.477 406.075 306.916C405.081 295.08 404.223 283.261 403.503 271.459C403.385 268.848 403.575 266.232 404.069 263.665C404.417 262.625 405.106 261.733 406.023 261.136C409.726 258.504 413.532 255.975 417.234 253.291C417.851 252.827 418.109 251.846 418.52 251.072C417.697 250.659 416.926 249.937 416.103 249.937C412.76 249.937 409.417 249.937 406.075 249.937C403.573 249.971 401.085 249.57 398.721 248.75L407.618 244.311C407.593 243.95 407.593 243.588 407.618 243.227C406.608 243.151 405.593 243.151 404.583 243.227C399.801 243.227 395.018 243.64 390.236 243.588C388.717 243.625 387.223 243.201 385.948 242.372C384.673 241.544 383.676 240.349 383.087 238.943C381.703 236.326 380.139 233.808 378.408 231.408C380.156 229.757 380.105 229.395 377.276 227.795C375.682 226.918 373.933 226.195 372.134 225.37C374.705 220.208 368.379 217.318 368.945 212.363L373.213 218.97C374.076 220.514 375.092 221.967 376.248 223.305C378.099 224.905 380.156 227.021 382.419 223.615C382.779 223.099 383.91 223.099 385.607 222.583L381.03 215.254V214.892L387.664 220.466L388.641 220.002C388.555 217.732 388.013 215.502 387.047 213.447C381.493 205.757 375.579 198.377 369.819 190.893C368.688 189.396 367.865 187.641 366.888 186.042C366.584 186.47 366.309 186.918 366.065 187.383C365.557 184.574 364.764 181.825 363.7 179.177C360.644 172.413 358.334 165.335 356.809 158.068C356.449 156.881 355.986 155.797 355.42 154.249C353.62 156.158 352.283 158.016 350.277 154.765C349.866 154.042 346.318 154.765 344.723 155.333C342.204 156.726 340.918 155.333 339.581 153.733C338.244 152.133 339.992 150.894 341.226 150.068C344.003 148.055 346.883 146.249 349.763 144.339L354.032 153.371H355.06C355.16 152.462 355.16 151.545 355.06 150.636C354.187 141.291 349.679 132.667 342.512 126.637C336.804 121.94 332.227 115.747 326.313 111.463C320.231 107.036 315.681 100.809 313.302 93.6568C312.868 92.7505 312.352 91.8867 311.759 91.0762L308.571 91.8504C309.034 90.1472 309.445 88.8569 309.805 87.5666L308.777 87.0505L305.845 90.6117C309.856 93.7084 308.417 97.8889 308.005 101.863C307.697 105.063 307.028 108.211 306.514 111.36L292.783 93.8632L305.537 100.469C307.799 94.8954 306.462 91.6439 300.908 90.1472C291.401 87.8556 282.122 84.6941 273.19 80.7023C271.734 80.1369 270.214 79.7555 268.664 79.5668C266.041 79.0507 263.11 77.8636 262.287 82.0958C262.287 82.6119 261.516 83.0248 261.259 83.3861L254.831 81.6829L254.162 82.7151L259.973 90.0439C256.926 88.4274 253.72 87.1303 250.408 86.1731C248.484 85.9941 246.551 86.3883 244.85 87.3063C243.149 88.2243 241.755 89.6253 240.843 91.3342C249.071 91.1054 257.123 93.7505 263.624 98.8179C263.984 97.0115 264.139 96.1341 264.396 94.9987C268.221 100.287 270.693 106.436 271.595 112.908C271.955 115.54 273.344 118.069 273.652 120.753C274.345 125.502 274.603 130.305 274.424 135.101C273.823 140.68 272.861 146.214 271.544 151.668C271.235 153.113 270.618 154.971 268.047 153.991C267.327 153.681 265.99 154.713 264.961 155.229C262.287 156.571 259.819 156.881 257.813 154.146C255.19 150.171 252.671 145.991 250.614 141.81C250.301 140.842 250.128 139.834 250.099 138.817C250.385 138.671 250.646 138.479 250.871 138.249C253.339 140.727 256.013 142.997 258.07 145.63C260.127 148.262 262.133 151.204 264.344 154.3C266.093 149.604 264.344 144.649 258.379 136.804L266.916 143.049C270.618 136.598 259.562 127.566 245.985 126.017C245.42 122.921 244.854 119.772 244.082 115.695C246.843 119.874 250.756 123.156 255.345 125.14C255 123.55 254.465 122.007 253.751 120.546C250.511 116.005 246.757 111.772 243.774 107.024C241.69 103.539 240.082 99.7899 238.991 95.8761C238.636 93.5326 238.636 91.1487 238.991 88.8053C243.003 86.1215 247.219 83.3344 251.385 80.3926C253.669 78.8568 255.819 77.1303 257.813 75.2314C259.385 73.886 260.5 72.0818 261.002 70.0703C261.002 67.6961 262.596 67.4381 264.139 66.9736C265.347 66.6257 266.588 66.4009 267.841 66.3026C269.239 66.3179 270.601 65.8565 271.703 64.9939C272.806 64.1313 273.584 62.9186 273.91 61.5543C267.224 61.2447 261.31 64.4446 254.882 65.2704C258.173 58.8706 275.452 56.1351 281.366 60.7802C280.338 58.6125 279.207 56.4964 278.384 54.2255C277.561 51.9546 277.047 49.6837 276.224 46.7934C282.652 41.3226 282.138 32.5486 283.166 24.2908C283.681 20.7812 284.041 17.2716 284.349 13.9685C284.478 11.9921 284.478 10.0095 284.349 8.03313C284.324 7.78772 284.235 7.55329 284.091 7.35381C283.946 7.15432 283.751 6.99691 283.526 6.89767C273.16 2.69225 262.102 0.469165 250.922 0.343003C250.459 0.343003 250.048 0.704282 249.431 1.73651L255.859 3.18164V3.69776C253.359 3.52172 250.87 3.2116 248.402 2.76874C245.779 2.11526 243.202 1.28765 240.688 0.29139C239.648 -0.0168233 238.551 -0.0815759 237.482 0.102112C236.413 0.285801 235.4 0.713038 234.521 1.351C233.642 1.98896 232.92 2.82066 232.411 3.7822C231.902 4.74374 231.62 5.80953 231.586 6.89767C230.403 14.8459 229.22 22.794 227.935 30.6906C227.369 33.7873 227.369 36.4711 230.403 38.3807C230.917 38.742 230.917 39.9807 231.123 40.8065C231.48 42.3191 231.738 43.8535 231.894 45.3999C231.913 46.2948 231.774 47.1859 231.483 48.0321C230.763 49.9934 229.786 51.8514 229.22 53.8642C229.22 54.6384 229.529 55.619 229.683 56.4964C229.837 57.3738 230.249 57.7867 230.146 58.3544C229.477 61.2963 230.455 62.8446 233.797 62.793C234.26 65.7865 234.774 68.78 235.289 71.9799L246.397 71.3606C247.411 73.3047 248.122 75.3935 248.505 77.5539C248.505 78.6894 246.808 80.2378 245.522 81.1152C242.678 82.9811 239.743 84.7036 236.729 86.2763C235.083 87.2053 234.826 88.1859 235.751 89.8375C236.178 90.792 236.355 91.8402 236.266 92.8826C235.803 96.8051 235.289 100.728 234.723 104.598C234.609 105.103 234.36 105.567 234.003 105.94C231.247 109.132 229.861 113.288 230.146 117.501C230.146 121.888 229.683 126.327 229.632 130.714C229.632 133.759 229.992 136.804 230.146 140.365C225.878 143.307 219.861 142.533 214.307 143.049C213.278 143.049 212.044 140.52 210.501 138.662L222.895 137.888L208.29 124.004L220.015 118.843C216.415 117.346 213.587 116.211 210.861 114.972C209.548 114.505 208.444 113.583 207.747 112.372C207.049 111.162 206.804 109.741 207.056 108.366C207.694 105.688 207.394 102.87 206.204 100.388C205.014 97.9059 203.008 95.9115 200.524 94.7406C199.959 94.4825 199.907 93.2439 199.65 92.4697C198.94 89.6856 197.976 86.9731 196.77 84.3667C195.588 82.1474 194.045 82.457 192.965 84.8312C192.398 86.1781 191.967 87.5786 191.679 89.0117C191.449 90.467 190.734 91.8008 189.65 92.7947C188.567 93.7887 187.179 94.3838 185.714 94.4825C184.156 94.7143 182.564 94.4806 181.137 93.8106C179.711 93.1406 178.512 92.0639 177.691 90.7149C176.766 89.0633 176.2 87.2569 175.326 85.5537C174.218 83.8227 173.353 81.9472 172.754 79.9797C174.362 80.6223 175.896 81.4355 177.331 82.4054C178.239 83.3994 178.954 84.5546 179.44 85.8118C180.569 87.7008 182.354 89.1042 184.452 89.7521C186.55 90.3999 188.813 90.2465 190.805 89.3214C190.805 89.0633 190.805 88.5988 190.394 88.5988C186.382 88.1859 185.251 85.2957 184.737 81.9409C183.142 73.7347 179.594 71.2057 171.16 71.9799C169.826 72.0019 168.535 71.5022 167.56 70.5864C165.4 68.6768 163.446 66.5091 161.595 64.5994C162.092 62.4893 162.47 60.3526 162.726 58.1996C162.726 55.1545 162.109 54.7932 159.075 55.6706C157.789 56.0319 156.504 56.4964 155.167 56.7545C153.708 56.8255 152.254 56.5492 150.922 55.9482C149.59 55.3472 148.419 54.4386 147.504 53.2965C144.952 50.772 141.558 49.2854 137.978 49.1234C134.398 48.9613 130.885 50.1354 128.117 52.4191C126.03 53.6767 123.846 54.764 121.585 55.6706C120.968 53.3481 120.557 51.7998 119.991 49.8385C118.963 50.5611 118.243 50.7675 117.986 51.232C116.031 54.6384 112.843 54.1739 109.706 54.1739C106.569 54.1739 103.638 54.4836 100.295 54.6384C102.301 61.3479 105.798 67.3349 105.438 74.1992L104.409 74.8185C103.167 73.459 102.048 71.9909 101.066 70.4315C98.192 64.4563 96.8318 57.8614 97.1065 51.232C97.1811 49.2374 96.9025 47.2453 96.2837 45.3483C93.9305 50.3811 92.2033 55.6853 91.1411 61.1415C87.0784 61.1415 82.6043 60.0576 80.4445 64.4446C79.7245 65.993 80.9587 68.5219 81.3701 70.8444C80.6501 70.8444 79.2102 71.4122 77.7703 71.9283C75.2785 72.6146 73.1013 74.1474 71.6101 76.2652C70.1189 78.383 69.4062 80.9545 69.5935 83.5409C69.1485 85.5693 68.4396 87.5301 67.4851 89.373C69.1821 90.302 68.3079 91.902 67.4851 93.6568C60.8767 106.545 56.6762 120.539 55.0914 134.946C54.7467 137.752 53.9659 140.486 52.7772 143.049C51.2858 146.559 51.2858 150.791 48.0974 153.371C47.9117 153.629 47.7795 153.922 47.7089 154.233C47.6382 154.543 47.6304 154.864 47.686 155.178C48.766 160.7 46.2975 165.758 45.5775 171.074C44.8575 176.39 44.189 180.106 43.4177 184.596C43.0577 186.764 45.0118 188.932 43.4177 191.099C43.4177 191.409 43.8805 192.957 44.4976 193.577C46.9433 196.144 48.5878 199.374 49.2288 202.867C51.3372 209.68 55.9142 211.022 61.5711 206.738C62.5482 205.964 64.1424 206.067 65.428 205.654C66.2224 205.477 66.9739 205.143 67.6393 204.673C68.3824 203.782 69.0531 202.833 69.645 201.835L70.4164 202.093C70.7154 204.411 71.1794 206.705 71.8049 208.957C72.3191 210.351 73.6048 212.363 74.6848 212.467C75.7647 212.57 77.616 211.125 78.5417 209.938C79.8857 208.08 81.04 206.092 81.9872 204.002C82.8539 202.663 84.1024 201.617 85.5701 201C87.0378 200.383 88.6565 200.225 90.2154 200.544C92.941 201.267 95.8209 201.628 99.0607 202.196C98.5979 204.209 97.9808 206.789 97.5694 209.37C95.1523 223.15 92.7867 236.982 90.3697 250.659C90.2713 252.462 89.7552 254.218 88.8625 255.785C87.9698 257.353 86.725 258.691 85.2271 259.691C82.8101 261.098 80.9064 263.246 79.7957 265.82C78.685 268.393 78.4257 271.256 79.056 273.988C79.416 276.465 79.6731 279.149 80.0331 281.575H81.0101L85.4842 273.626L86.4099 274.039C85.7649 275.511 85.2319 277.029 84.8157 278.581C84.5586 280.491 83.3243 282.968 85.9985 284.052C89.444 285.445 91.1411 284.052 90.5754 280.181C90.164 277.342 89.8554 274.401 89.7012 271.51C89.7991 270.654 90.1792 269.855 90.7811 269.239C91.0897 268.827 91.7068 268.723 92.1696 268.517C99.1122 265.214 99.935 265.678 100.244 273.678L109.295 273.162C108.06 270.426 107.083 268.001 105.952 265.936C104.82 263.872 105.026 262.788 106.775 262.375C112.637 260.982 118.603 259.898 124.722 258.659C124.414 261.859 124.054 264.285 123.9 266.762C123.9 268.414 124.465 269.033 126.368 268.827C133.619 267.949 134.648 265.781 130.534 259.588C130.174 259.072 129.814 258.659 128.939 257.627C131.376 256.537 133.906 255.674 136.499 255.046C140.132 254.564 143.789 254.288 147.453 254.22C149.767 254.22 150.744 254.788 149.51 257.369C148.714 259.291 148.078 261.277 147.607 263.304C147.144 265.162 148.07 265.885 149.818 265.472C152.39 264.904 154.961 264.078 158.047 263.252C157.33 268.694 155.281 273.872 152.081 278.323C149.767 281.058 147.658 284 145.087 286.529C143.802 287.724 142.154 288.451 140.407 288.594C132.693 289.058 124.979 289.523 117.214 289.42C110.271 288.761 103.267 289.552 96.6437 291.742C87.1813 295.665 83.5301 303.664 82.3987 313.264C82.4291 314.154 82.1571 315.027 81.6273 315.741C81.6005 313.393 81.7552 311.046 82.0901 308.722C83.4272 303.251 85.3299 297.935 86.5127 292.465C86.4727 290.47 86.09 288.497 85.3813 286.633C82.1415 287.923 82.3472 290.968 81.7816 293.239C80.8044 297.11 80.5473 301.084 79.9302 305.006C79.5188 307.587 78.9017 310.167 78.2846 312.645C77.6674 315.122 77.1018 316.361 76.279 318.838C74.1705 319.354 71.5478 320.232 68.8222 320.799C60.6433 322.852 52.7987 326.068 45.5261 330.348C40.3835 333.135 34.6752 335.509 29.1726 338.089C25.2277 339.725 21.9021 342.576 19.6749 346.23C17.4476 349.885 16.4335 354.154 16.7789 358.424C16.7789 363.018 17.1389 367.611 17.2932 372.153C18.0131 388.514 18.6302 404.875 19.2988 421.184C19.2988 421.958 19.2988 422.887 19.2988 423.352C23.8757 429.906 19.813 437.958 23.1557 444.719L27.0641 452.461L30.2011 458.138C33.2628 463.4 37.5067 467.871 42.5948 471.196C44.8989 472.55 46.668 474.66 47.6046 477.169C48.5411 479.679 48.588 482.436 47.7374 484.976C46.0918 490.86 47.7375 494.266 53.7543 497.105C52.351 497.733 50.9079 498.267 49.4345 498.705C45.269 499.53 41.0521 500.201 36.8351 501.027C35.5101 501.143 34.2683 501.724 33.3278 502.668C32.3874 503.612 31.8083 504.858 31.6925 506.188C31.4818 507.34 31.6672 508.529 32.2186 509.56C32.7699 510.592 33.6543 511.405 34.7266 511.866C36.218 512.743 36.218 513.517 35.6523 515.169C34.418 518.781 33.6981 522.601 32.721 526.472L16.3161 527.349L21.973 519.143L21.0473 518.42C16.7088 520.471 13.114 523.826 10.762 528.02C7.77936 533.181 5.20801 539.168 2.37958 544.69C1.52637 545.833 0.736633 547.022 0.0139771 548.252C-0.0291138 548.665 0.0278931 549.083 0.180115 549.469C0.332336 549.855 0.575256 550.199 0.888245 550.471C3.45953 550.832 6.03082 550.781 8.75641 551.142C9.2193 551.142 10.0935 552.535 9.88782 553L38.635 549.387C40.3077 547.681 41.4546 545.528 41.938 543.184C42.4214 540.84 42.2209 538.407 41.3606 536.175C40.1559 531.707 40.4819 526.963 42.2863 522.704C44.2919 517.543 46.0918 517.13 49.6917 520.898L50.5144 521.827C50.9254 522.379 51.4675 522.819 52.0913 523.106C52.7151 523.394 53.4008 523.521 54.0858 523.475C54.7709 523.429 55.4335 523.211 56.0134 522.842C56.5932 522.473 57.0718 521.964 57.4055 521.362C58.9172 519.36 60.0661 517.106 60.7997 514.704C62.5482 507.582 63.5253 500.253 65.5309 493.182C68.1709 483.307 71.312 473.575 74.9419 464.022C77.714 458.335 80.8223 452.82 84.25 447.506C86.2693 443.528 89.3264 440.174 93.0953 437.803C95.9081 436.07 98.2643 433.684 99.9649 430.846C101.666 428.007 102.661 424.799 102.866 421.494C103.071 420.275 103.452 419.092 103.998 417.984C107.752 410.346 111.609 402.501 115.26 395.017C117.523 390.217 119.425 385.159 121.071 381.237L135.059 383.559C135.199 385.83 136.178 387.966 137.804 389.551C139.43 391.135 141.587 392.054 143.853 392.127C148.834 392.513 153.837 392.513 158.818 392.127C159.289 391.931 159.705 391.622 160.029 391.225C160.352 390.829 160.572 390.358 160.669 389.856C160.258 387.327 159.435 384.695 158.766 382.217C159.907 381.906 160.986 381.4 161.955 380.72C164.938 377.985 168.075 378.966 171.417 379.791C178.154 381.546 184.891 383.301 191.731 384.643C205.719 387.482 219.706 390.32 233.797 392.694C243.652 394.471 253.619 395.557 263.624 395.946C273.949 396.194 284.275 395.521 294.48 393.933C303.617 392.391 312.6 390.042 321.325 386.914C326.068 384.444 331.478 383.575 336.752 384.436C337.61 384.613 338.387 385.066 338.964 385.727C342.615 390.888 345.958 396.772 349.712 402.139C355.416 411.283 362.839 419.224 371.568 425.519C373.612 426.586 375.375 428.125 376.71 430.01C378.138 432.542 378.982 435.364 379.179 438.267C379.179 439.403 376.762 440.796 375.219 441.829C365.654 448.435 356.037 455.041 346.318 461.389C337.596 467.963 328.159 473.521 318.188 477.957C315.204 479.376 312.778 481.756 311.296 484.718C309.569 488.381 308.374 492.275 307.748 496.279C306.538 503.9 303.978 511.241 300.188 517.956C299.611 519.493 299.281 521.114 299.211 522.756C298.697 525.646 298.44 528.639 297.668 531.478C296.736 534.084 295.618 536.619 294.326 539.065H292.012C307.088 539.989 321.934 543.227 336.032 548.665ZM292.063 182.48C296.949 184.39 301.783 186.661 306.668 182.48C307.808 183.98 308.855 185.549 309.805 187.177C310.747 189.22 312.131 191.026 313.857 192.464C315.583 193.901 317.607 194.934 319.782 195.486C321.89 196.003 323.382 195.848 324.05 193.37C325.09 190.524 325.865 187.587 326.364 184.596C326.393 181.043 326.048 177.497 325.336 174.016C325.336 173.552 324.564 173.139 324.05 172.881C321.486 172.253 319.261 170.659 317.834 168.431C316.408 166.202 315.89 163.508 316.388 160.907C316.388 160.391 316.388 159.874 316.388 159.358C316.388 157.81 316.388 156.313 316.388 153.887L314.176 148.417L314.742 148.21C315.822 149.81 317.468 151.255 317.776 153.01C318.086 155.737 319.344 158.267 321.328 160.155C323.313 162.043 325.897 163.168 328.627 163.332C329.536 163.416 330.411 163.724 331.173 164.228C331.936 164.732 332.562 165.417 332.998 166.223C336.084 170.919 339.735 175.203 342.975 179.797C344.452 182.035 345.791 184.362 346.986 186.764C347.691 188.293 348.309 189.861 348.838 191.461C344.466 193.061 346.009 197.086 345.752 200.544C338.707 195.383 333.307 196.88 329.244 204.518C328.627 205.706 327.907 206.893 327.239 208.08C326.779 209.262 325.872 210.213 324.715 210.725C323.559 211.238 322.247 211.27 321.067 210.815C317.603 209.523 314.319 207.788 311.296 205.654C306.668 202.041 301.423 198.532 301.68 191.306C301.68 190.17 299.417 187.848 298.388 187.951C293.863 188.364 293.246 185.267 292.166 182.222C290.777 181.5 288.566 181.138 288.155 180.003C286.686 176.173 285.5 172.24 284.606 168.236C283.855 163.59 284.575 158.824 286.663 154.61C290.212 162.61 293.297 169.732 296.589 177.164C291.446 176.803 289.749 173.087 287.023 170.248C286.653 171.194 286.653 172.245 287.023 173.19C288.669 176.442 290.417 179.435 292.063 182.48ZM166.223 247.666C168.277 247.468 170.263 246.821 172.041 245.768C173.818 244.716 175.343 243.285 176.508 241.576C180.467 236.453 185.418 232.186 191.062 229.034C192.016 228.322 192.82 227.427 193.428 226.402L192.913 225.679L184.942 226.144C184.966 225.886 184.966 225.627 184.942 225.37C186.331 224.905 187.719 224.389 189.108 224.028C191.679 223.357 194.816 223.563 195.073 219.486C195.463 220.468 195.622 221.528 195.536 222.583C194.508 232.595 193.479 242.659 192.296 252.724C192.162 253.28 191.903 253.797 191.537 254.236C191.171 254.674 190.71 255.022 190.188 255.253C185.611 256.904 180.931 258.246 176.046 259.794C175.326 258.711 174.657 257.317 173.68 256.078C171.366 253.24 168.949 250.453 166.583 247.666C166.583 249.317 166.583 250.969 166.995 252.827C167.059 256.169 168.058 259.427 169.876 262.228C171.694 265.029 174.26 267.262 177.28 268.672L187.565 273.833C187.565 281.007 187.565 287.871 187.565 294.477C187.406 296.035 187.096 297.574 186.639 299.071C186.023 301.911 185.611 304.791 185.405 307.69C185.456 309.192 185.123 310.682 184.439 312.019C183.755 313.355 182.742 314.495 181.497 315.329C179.435 316.974 177.692 318.986 176.354 321.264C174.04 325.083 173.526 325.548 169.155 324.877C164.783 324.206 164.012 325.548 165.298 329.677C165.536 330.248 165.847 330.786 166.223 331.277C167.786 333.444 169.882 335.168 172.306 336.281C174.731 337.393 177.401 337.856 180.057 337.625C182.405 337.932 184.79 337.464 186.85 336.291C188.91 335.118 190.533 333.303 191.474 331.122C191.474 331.122 191.833 331.122 192.142 331.122C192.451 331.122 192.142 332.36 192.142 332.98C192.553 337.522 192.142 337.78 187.771 338.709C182.014 339.85 176.062 339.477 170.492 337.625C168.432 337.13 166.332 336.82 164.218 336.696C164.057 337.101 163.92 337.514 163.806 337.934L170.132 343.096C170.154 343.301 170.154 343.509 170.132 343.715L162.006 342.012C161.984 343.307 162.266 344.589 162.829 345.754C163.392 346.92 164.22 347.936 165.246 348.721C171.074 354.118 178.572 357.343 186.485 357.857C187.457 358.046 188.374 358.456 189.165 359.053C189.957 359.651 190.602 360.422 191.053 361.307C191.504 362.192 191.748 363.168 191.768 364.162C191.787 365.156 191.581 366.141 191.165 367.043C190.749 367.484 190.212 367.789 189.622 367.921L178.051 370.656L170.44 372.669V373.753C171.451 373.805 172.464 373.805 173.474 373.753C178.617 373.185 183.76 372.463 188.902 371.998C189.776 371.998 190.754 373.03 191.679 373.598C190.702 374.114 189.776 375.146 188.748 375.146C178.463 375.146 168.177 375.146 157.892 375.146C154.549 375.146 153.161 374.372 153.264 370.966C153.264 369.624 152.544 368.334 152.492 366.992C152.503 365.841 152.785 364.709 153.315 363.689C153.811 362.908 154.508 362.276 155.331 361.858C156.154 361.44 157.075 361.253 157.995 361.315C163.138 360.902 168.28 360.127 173.423 359.508C173.448 359.147 173.448 358.785 173.423 358.424C170.08 357.082 166.789 355.637 163.138 354.502C161.217 353.668 159.666 352.159 158.776 350.258C157.886 348.357 157.718 346.196 158.304 344.179C158.985 343.011 159.395 341.703 159.502 340.354C159.608 339.004 159.41 337.648 158.921 336.386C158.327 334.358 158.222 332.218 158.612 330.141C161.002 315.666 161.881 300.981 161.235 286.323C160.279 276.592 161.169 266.767 163.858 257.369C164.858 254.19 165.648 250.949 166.223 247.666ZM317.776 314.761C313.118 315.513 308.527 316.634 304.045 318.116C297.966 320.396 291.363 320.88 285.018 319.509C280.26 318.546 275.32 319.143 270.927 321.212C265.321 324.041 259.15 325.558 252.876 325.651C245.317 325.651 237.808 326.425 230.3 326.58C221.692 327.192 213.041 326.619 204.587 324.877C203.504 324.503 202.328 324.503 201.244 324.877C200.566 325.266 199.802 325.48 199.022 325.501C198.241 325.521 197.467 325.348 196.769 324.995C196.071 324.642 195.471 324.122 195.023 323.48C194.574 322.838 194.291 322.094 194.199 321.316C193.891 319.251 193.119 317.29 192.708 315.225C192.159 313.564 191.967 311.805 192.142 310.064C193.119 305.729 194.456 301.445 195.69 297.006C197.85 297.677 198.879 302.168 203.456 300.671C202.17 299.535 201.45 298.864 200.73 298.348C199.058 296.955 197.868 295.065 197.332 292.951C196.797 290.837 196.942 288.607 197.747 286.581C199.945 283.468 200.832 279.611 200.216 275.846L209.01 272.078C210.079 277.327 209.902 282.755 208.496 287.923C207.313 291.949 203.97 292.619 200.782 289.936L198.519 288.232C198.098 289.382 198.098 290.644 198.519 291.794C199.049 293.478 200.155 294.92 201.642 295.864C203.129 296.809 204.901 297.195 206.644 296.955C208.545 296.808 210.343 296.028 211.75 294.737C213.157 293.446 214.094 291.719 214.41 289.832C216.044 283.617 216.324 277.122 215.232 270.788C215.048 270.34 214.963 269.857 214.983 269.372C215.003 268.888 215.127 268.413 215.347 267.982C215.566 267.55 215.877 267.171 216.257 266.872C216.637 266.572 217.077 266.359 217.547 266.246C223.975 263.511 230.455 261.085 236.729 257.936C240.104 256.43 243.757 255.651 247.451 255.651C251.145 255.651 254.798 256.43 258.173 257.936C265.423 261.31 272.035 265.92 277.715 271.562C278.658 272.763 279.133 274.267 279.052 275.794C279.052 278.581 278.641 281.42 278.641 284.258C278.641 290.555 277.047 292.516 270.773 292.981C269.487 292.981 268.253 292.981 267.019 292.981C262.236 292.981 257.35 292.465 252.619 292.981C248.814 293.29 245.111 294.839 241.305 295.303C236.163 295.923 231.02 295.819 225.878 296.387C222.803 296.861 219.787 297.657 216.878 298.761C216.055 299.071 215.798 300.723 215.232 301.806C216.209 302.219 217.135 303.045 218.009 302.993C221.609 302.993 225.106 302.477 228.655 302.064C241.203 300.619 253.751 299.019 266.35 297.781C270.875 297.368 275.504 297.781 280.132 297.781C284.761 297.781 285.635 296.594 285.84 292.155C286.046 287.716 285.84 284 285.84 279.871C285.84 278.839 285.84 277.704 285.84 276.671L286.715 276.259C288.383 277.877 289.946 279.601 291.395 281.42C295.766 286.633 299.623 292.723 303.583 297.884C307.542 303.045 313.251 309.496 317.776 314.916V314.761ZM151.567 136.856C150.635 137.007 149.733 137.303 148.893 137.733C143.75 141.397 138.967 145.268 133.773 148.726C129.556 151.617 125.031 153.887 120.043 157.036L140.613 132.107L139.687 131.075C133.408 135.083 127.699 139.927 122.717 145.475C124.042 142.562 125.059 139.517 125.751 136.391C126.414 130.032 126.603 123.631 126.317 117.243C125.385 106.318 120.214 96.198 111.917 89.0633C111.3 88.4956 110.58 87.515 110.734 86.8956C111.403 83.5409 112.432 80.2894 113.1 77.6056C116.083 77.1927 118.603 76.9346 121.071 76.3669C121.964 76.0931 122.915 76.0685 123.821 76.2958C124.727 76.5231 125.554 76.9937 126.214 77.6572C128.286 79.806 130.799 81.4774 133.578 82.5556C136.357 83.6339 139.337 84.0934 142.31 83.9022C144.476 83.8135 146.553 83.016 148.224 81.6313C150.256 79.6529 152.954 78.5111 155.784 78.4313C153.675 82.7151 153.418 85.2957 154.961 87.3085C155.923 88.3459 157.157 89.0898 158.522 89.455C159.886 89.8202 161.326 89.7918 162.675 89.373C166.943 88.8569 167.818 89.7343 170.183 93.9148C171.731 96.4307 173.822 98.565 176.303 100.16C178.792 101.378 181.416 102.296 184.12 102.895C182.628 107.437 184.942 110.585 189.622 110.276C192.091 110.276 192.553 111.36 192.553 113.527C192.237 115.684 192.541 117.886 193.428 119.875C196.513 123.85 199.393 128.03 202.479 132.004C204.138 133.867 205.944 135.592 207.878 137.165C205.821 138.765 204.33 137.165 202.736 136.236C199.239 133.604 195.845 131.075 192.451 128.288C188.079 125.14 187.308 125.346 184.428 129.733C184.428 129.733 183.965 129.733 183.4 130.198C183.76 129.011 183.965 128.082 184.428 126.172C182.268 127.101 180.263 127.411 179.697 128.443C179.572 129.18 179.609 129.936 179.804 130.658C180 131.38 180.349 132.051 180.828 132.624C182.605 134.492 184.495 136.25 186.485 137.888C182.68 140.365 185.148 143.41 186.177 146.301C177.691 149.036 172.24 159.152 175.531 166.378C169.72 168.648 163.858 170.764 158.149 173.293C143.589 179.271 128.662 184.305 113.46 188.364C111.094 189.035 110.323 188.364 110.014 185.938C109.516 182.983 109.757 179.95 110.718 177.111C111.679 174.273 113.328 171.72 115.517 169.681C116.829 168.441 118.443 167.569 120.197 167.152C129.314 166.092 138.09 163.045 145.91 158.223C147.05 157.311 148.132 156.329 149.15 155.281C148.897 154.921 148.673 154.541 148.481 154.146C145.926 155.463 143.299 156.635 140.613 157.655C137.836 158.481 134.853 158.687 132.025 159.358C129.196 160.029 126.522 160.958 123.745 161.732C123.723 161.458 123.723 161.181 123.745 160.907C135.186 155.83 144.869 147.459 151.567 136.856ZM92.9924 254.53L92.1182 253.911L93.0439 250.35C95.3581 241.576 97.7236 232.802 99.935 224.028C101.822 214.869 106.622 206.573 113.614 200.39C118.757 196.106 123.025 190.996 130.379 189.654C136.735 187.969 142.958 185.812 148.996 183.203C151.167 182.541 153.385 182.041 155.629 181.706C156.982 181.812 158.34 181.812 159.692 181.706C162.343 180.497 165.055 179.429 167.817 178.506C175.48 176.751 180.777 176.958 184.171 184.854C184.912 186.827 185.168 188.951 184.918 191.044C184.667 193.138 183.917 195.139 182.731 196.88C178.88 203.286 176.035 210.249 174.297 217.525C174.046 218.083 173.676 218.58 173.214 218.981C172.753 219.382 172.21 219.677 171.623 219.847C163.446 222.221 155.167 224.286 146.99 226.711C140.202 228.776 133.671 231.873 126.779 233.369C115.577 236.037 105.477 242.133 97.8779 250.814C96.3104 252.131 94.68 253.372 92.9924 254.53ZM352.952 313.058C351.46 312.025 350.586 311.509 349.815 310.838C341.226 303.2 332.638 295.665 324.102 287.82C319.715 282.704 314.802 278.068 309.445 273.988C301.557 269.354 293.997 264.181 286.818 258.504C279.361 252.414 272.727 245.292 265.116 237.86C266.94 237.548 268.811 237.651 270.591 238.16C272.371 238.669 274.014 239.571 275.401 240.801C282.601 245.498 289.697 250.453 297.154 254.685C302.17 257.129 307.321 259.283 312.582 261.136C320.757 265.093 329.641 267.357 338.707 267.794C342.572 267.769 346.436 267.976 350.277 268.414C356.988 269.118 363.744 267.595 369.511 264.078C371.003 263.014 372.428 261.86 373.779 260.62C371.901 259.41 369.88 258.439 367.762 257.73C358.608 256.182 349.437 254.805 340.249 253.601C326.694 251.372 313.452 247.525 300.805 242.143C300.343 242.143 300.086 241.421 299.828 241.111C325.541 242.659 350.689 249.111 375.836 255.201C375.065 252.466 373.779 250.35 373.008 247.975C372.329 245.561 371.865 243.091 371.619 240.595C371.429 239.413 371.511 238.203 371.859 237.058C372.206 235.913 372.811 234.863 373.625 233.989C373.625 236.982 373.368 239.563 373.213 242.143H374.242L376.813 239.098C377.228 239.437 377.607 239.817 377.945 240.234C380.421 244.281 384.277 247.288 388.796 248.698C393.27 250.453 397.589 252.466 402.629 254.633C401.439 255.727 400.167 256.728 398.824 257.627C395.329 259.681 392.314 262.461 389.978 265.781C386.607 270.102 382.911 274.157 378.922 277.91C371.972 283.518 366.024 290.272 361.334 297.884C358.711 303.045 355.883 307.845 352.952 313.058ZM297.154 208.854C297.154 208.854 297.154 209.37 297.154 209.68C286.869 210.763 276.172 210.454 265.784 212.054C265.784 212.467 265.784 212.88 265.784 213.292L307.851 227.279C301.423 230.892 217.032 223.821 210.141 219.383C212.736 218.233 214.93 216.332 216.442 213.922C217.954 211.513 218.715 208.706 218.627 205.86C218.627 201.938 219.141 198.015 219.398 195.074C222.998 193.267 226.289 191.874 229.272 189.912C231.329 188.622 231.329 187.229 228.809 185.835C226.871 185.021 225.159 183.745 223.824 182.117C222.489 180.489 221.57 178.559 221.146 176.493C220.684 173.242 220.581 170.042 216.569 168.855C217.763 167.454 219.307 166.4 221.044 165.801C222.78 165.202 224.644 165.08 226.443 165.448C229.94 165.861 233.437 166.171 236.42 166.429C235.854 155.797 235.237 145.268 234.671 134.585L239.043 133.965C237.551 125.914 236.06 118.069 234.62 110.224H235.34C237.346 117.605 239.403 124.985 241.46 132.52L245.06 131.178C245.831 135.565 246.602 139.798 247.425 143.978H246.448C245.625 140.933 244.751 137.888 243.671 134.223L241.408 137.939L239.094 136.185C238.841 136.934 238.702 137.717 238.683 138.507C239.043 141.862 239.351 145.217 239.968 148.52C241.202 155.256 241.062 162.174 239.557 168.855C239.299 171.291 239.299 173.748 239.557 176.184C238.414 176.191 237.308 175.773 236.453 175.01C235.599 174.248 235.056 173.195 234.929 172.055C234.789 171.223 234.408 170.451 233.833 169.835C233.257 169.22 232.514 168.789 231.696 168.596C230.877 168.403 230.02 168.457 229.232 168.751C228.444 169.045 227.76 169.566 227.266 170.248C226.373 171.108 225.641 172.122 225.106 173.242C224.694 173.802 224.43 174.458 224.339 175.148C224.247 175.838 224.331 176.541 224.583 177.189C224.834 177.838 225.245 178.413 225.777 178.86C226.309 179.307 226.945 179.611 227.626 179.745C230.106 180.398 232.352 181.74 234.106 183.616C234.693 183.962 235.207 184.421 235.616 184.968C236.025 185.514 236.322 186.137 236.49 186.799C236.657 187.462 236.692 188.151 236.591 188.828C236.491 189.504 236.258 190.153 235.906 190.738C234.895 192.402 233.985 194.126 233.18 195.899C232.48 196.966 232.128 198.225 232.174 199.502C232.22 200.778 232.662 202.009 233.437 203.022C235.7 200.493 235.443 196.054 240.431 196.364C240.431 195.951 240.431 195.486 240.431 195.022L236.934 193.835L237.911 192.596C240.225 192.596 242.591 193.009 244.905 193.009C247.054 193.296 249.239 193.066 251.282 192.338C252.062 191.781 252.717 191.066 253.204 190.239C253.691 189.413 254 188.492 254.111 187.538C254.111 186.351 252.362 184.648 251.025 183.925C249.269 183.288 247.435 182.889 245.574 182.738C245.869 182.345 246.24 182.015 246.664 181.767C247.087 181.519 247.556 181.358 248.042 181.293C258.945 180.571 269.898 179.951 280.852 179.332C283.166 179.332 283.886 180.622 283.732 182.893C279.412 183.358 274.99 181.19 270.156 183.616L277.509 186.248C277.509 186.558 277.509 186.867 277.509 187.177C272.595 185.627 267.303 185.791 262.493 187.641C263.686 189.167 265.321 190.285 267.173 190.841C273.346 192.381 279.139 195.174 284.195 199.048C286.663 200.441 289.337 201.99 291.497 203.486L291.24 204.26C289.854 204.365 288.461 204.365 287.075 204.26C283.681 203.744 280.286 203.022 276.789 202.506C271.03 201.628 265.27 200.648 259.459 200.131C253.648 199.615 246.345 199.254 239.814 198.996C238.631 198.996 237.397 200.131 236.214 200.751L236.523 202.196L297.154 208.854ZM418.366 442.396L418.931 441.932C419.726 442.898 420.432 443.934 421.04 445.029C421.605 446.319 422.685 448.228 422.171 449.157C420.172 453.586 417.293 457.559 413.712 460.833C410.131 464.108 405.923 466.615 401.344 468.202C392.241 470.886 382.984 473.363 373.779 475.376C369.672 476.339 365.806 478.136 362.418 480.657C359.03 483.178 356.194 486.369 354.083 490.034C351.454 494.477 348.551 498.752 345.392 502.833C339.186 511.285 333.698 520.246 328.987 529.62C328.576 530.446 327.753 531.581 327.033 531.633C319.319 532.562 311.605 533.336 303.634 534.162C303.897 531.072 304.518 528.023 305.485 525.078C306.401 522.865 308.055 521.04 310.165 519.917C312.809 518.992 315.594 518.538 318.393 518.575C322.044 518.575 325.644 518.575 329.347 518.575C329.913 518.575 330.53 517.904 331.095 517.543C330.751 516.887 330.299 516.294 329.758 515.788C326.233 513.507 322.063 512.438 317.879 512.743L307.851 513.259L314.948 497.776L320.09 501.285C322.199 502.575 324.359 503.763 326.364 505.104C327.496 505.879 328.318 507.014 329.398 507.84C330.478 508.666 331.97 508.511 331.97 506.498C331.998 502.923 332.8 499.396 334.318 496.162C335.836 492.927 338.035 490.062 340.764 487.763C347.721 479.628 356.945 473.769 367.248 470.938C373.42 469.868 379.657 469.213 385.916 468.976C391.897 468.522 397.707 466.76 402.938 463.815C405.51 462.436 407.699 460.434 409.306 457.992C410.913 455.55 411.889 452.744 412.143 449.828C412.309 449.034 412.286 448.211 412.075 447.427C411.865 446.643 411.473 445.92 410.932 445.317C410.391 444.714 409.716 444.247 408.961 443.955C408.207 443.662 407.394 443.553 406.589 443.635C400.842 444.171 395.189 445.455 389.773 447.454C384.26 449.816 379.314 453.336 375.271 457.777C371.891 461.445 367.771 464.348 363.185 466.292C360.822 467.117 358.575 468.245 356.5 469.647C348.632 474.808 341.072 480.537 333.101 486.163C328.155 490.394 322.106 493.117 315.668 494.008C315.807 491.949 316.412 489.95 317.437 488.161C318.461 486.373 319.879 484.842 321.582 483.686C327.599 479.815 334.078 476.512 340.352 472.899C340.918 472.538 341.175 471.608 341.638 470.938C340.936 470.733 340.209 470.629 339.478 470.628C338.627 470.81 337.799 471.087 337.009 471.454C337.072 471.06 337.214 470.683 337.426 470.346C337.638 470.009 337.916 469.718 338.244 469.492C352.026 461.647 365.808 454.009 379.385 446.061C381.778 444.807 384.021 443.283 386.07 441.519C388.338 439.114 390.467 436.581 392.447 433.932C393.741 435.011 395.136 435.962 396.612 436.771C398.357 437.878 400.421 438.369 402.475 438.164C404.295 437.361 406.308 437.104 408.27 437.424C410.232 437.745 412.06 438.629 413.532 439.971C415.043 440.965 416.666 441.779 418.366 442.396ZM44.4976 442.861C46.4518 440.796 47.4803 439.042 49.0231 438.267C51.9029 436.822 51.6458 435.067 50.3602 433.106C48.2517 429.648 45.7833 426.345 43.829 422.784C40.9895 419.215 39.319 414.853 39.0464 410.294C39.5093 401.055 39.0464 391.817 39.0464 382.579C38.9573 380.167 39.4145 377.767 40.3835 375.559C41.9915 371.761 44.5623 368.451 47.8403 365.96C55.086 362.891 63.1099 362.187 70.7763 363.947C72.9362 364.308 75.919 363.947 76.8961 365.547C77.8732 367.147 76.8961 369.676 76.8961 371.843C76.8961 377.83 76.5361 383.766 76.0218 389.701C75.935 396.02 73.9647 402.167 70.3649 407.352C68.2897 409.974 66.7643 412.989 65.8806 416.218C64.9968 419.446 64.7729 422.821 65.2223 426.139C65.7817 432.357 64.4552 438.6 61.4168 444.048C60.4911 445.648 59.874 446.319 57.8684 445.648C55.1686 444.863 52.4198 444.26 49.6402 443.841C48.4574 443.583 46.9146 443.429 44.4976 443.016V442.861ZM127.345 335.096C126.872 335.86 126.339 336.585 125.751 337.263C119.68 343.971 114.336 351.306 109.809 359.147C106.927 364.541 103.479 369.611 99.5236 374.269C94.8282 379.116 90.4804 384.29 86.5127 389.753C83.8152 392.95 80.9303 395.983 77.8731 398.836C77.8731 397.339 77.8731 396.927 77.8731 396.514C78.9627 390.984 79.5991 385.374 79.7759 379.74C80.4154 374.225 80.6903 368.673 80.5988 363.121C79.579 355.009 80.6228 346.771 83.6329 339.173C86.0499 332.67 88.7755 326.219 91.5011 319.922C92.127 318.714 93.0201 317.665 94.1119 316.856C95.2038 316.048 96.4655 315.5 97.8005 315.256C99.1356 315.012 100.509 315.078 101.814 315.448C103.12 315.818 104.324 316.484 105.335 317.393C108.369 319.922 108.523 320.851 106.209 324.103C102.249 329.728 98.0322 335.147 94.3295 340.928C93.2548 342.312 92.5067 343.923 92.1415 345.64C91.7764 347.356 91.8035 349.133 92.221 350.837C93.7621 349.792 95.239 348.655 96.6437 347.431C101.786 341.96 106.929 336.283 112.74 330.967C119.168 324.67 125.854 318.529 132.539 312.49C139.225 306.451 141.23 299.019 145.344 292.258L148.43 287.097C147.607 293.755 146.938 299.484 146.219 305.264C146.17 305.678 146.048 306.08 145.859 306.451C143.923 309.815 141.685 312.994 139.173 315.948C135.764 318.972 132.118 321.716 128.271 324.154C122.151 328.335 121.894 330.76 127.345 335.096ZM202.839 328.128C202.988 327.723 203.16 327.327 203.353 326.941C206.715 328.074 210.152 328.97 213.638 329.625C218.781 330.193 223.615 330.038 228.603 330.348C237.448 330.864 246.294 331.535 255.139 331.999C263.71 332.085 272.222 330.562 280.235 327.509C285.227 325.81 290.409 324.735 295.663 324.309C304.097 323.69 312.582 323.948 321.016 323.793C323.378 323.91 325.671 324.63 327.678 325.885C329.685 327.141 331.339 328.89 332.484 330.967C332.638 331.454 332.638 331.977 332.484 332.464C331.198 337.057 329.861 341.65 328.524 346.296C326.335 344.078 323.567 342.524 320.538 341.812C317.51 341.1 314.342 341.259 311.399 342.27C306.257 343.302 301.114 344.592 295.971 345.47C280.043 347.999 263.817 347.999 247.888 345.47C235.866 343.392 224.219 339.531 213.33 334.012C209.678 332.515 206.336 330.193 202.839 328.128ZM399.955 311.148C396.615 311.111 393.283 311.475 390.03 312.232C378.973 316.361 367.659 314.09 356.449 314.503C360.974 304.18 393.835 267.33 400.726 265.007C402.475 280.542 398.361 295.871 399.955 311.148ZM434.873 376.54L435.182 377.779C434.071 378.331 432.919 378.797 431.736 379.172C428.297 379.965 425.2 381.839 422.896 384.522C420.593 387.205 419.204 390.557 418.931 394.088C417.543 403.275 416.874 412.616 416.36 421.907C416.308 427.077 416.548 432.247 417.08 437.39C413.77 432.939 411.072 428.061 409.058 422.887C406.589 415.455 405.098 407.713 403.195 400.126C402.886 399.043 402.269 398.114 401.858 397.03L400.469 397.391C401.652 405.649 402.886 413.958 404.121 422.268L402.886 422.836C399.337 418.706 396.089 414.325 393.167 409.726C387.459 399.404 382.367 388.669 377.019 378.088C377.923 377.333 379.027 376.857 380.196 376.72C381.364 376.582 382.548 376.789 383.602 377.314L401.189 383.559C404.8 385.197 408.78 385.84 412.721 385.422C416.661 385.005 420.42 383.543 423.611 381.185C427.166 379.189 430.947 377.63 434.873 376.54ZM94.8952 98.3534C90.3697 101.605 90.1126 102.482 91.8611 108.676C91.8611 109.347 91.5011 110.224 91.1925 110.947C88.5698 117.863 85.6385 124.624 83.3243 131.591C82.4876 135.3 80.9325 138.807 78.7474 141.914C77.9066 142.981 77.2939 144.211 76.9475 145.526C73.9832 152.863 72.3798 160.682 72.2163 168.597C68.7707 166.429 65.8909 164.468 62.9081 162.661C59.9254 160.855 59.9254 159.462 61.674 156.881C62.9861 154.608 64.1375 152.245 65.1195 149.81C68.4782 143.471 71.3826 136.9 73.8105 130.146C76.2339 120.993 80.0872 112.283 85.2271 104.34C86.0696 103.111 86.5993 101.694 86.7699 100.211C86.7699 98.5083 86.7699 96.547 84.3014 95.9793C81.3187 104.598 79.1588 107.127 69.1307 100.676C71.2392 93.6052 73.0905 86.4827 75.6104 79.6184C76.279 77.812 78.8503 76.5217 80.753 75.4379C81.0616 75.4379 82.7072 77.5023 83.6843 78.6378L84.0957 79.1023C89.0862 84.627 92.7768 91.2059 94.8952 98.3534ZM82.5529 327.612L83.6329 328.851C83.1661 330.693 82.383 332.44 81.3187 334.012C78.3332 336.751 75.1536 339.27 71.8049 341.547C64.9153 347.167 56.4855 350.551 47.6346 351.25C46.08 351.315 44.5783 351.836 43.3148 352.747C39.715 355.173 36.3723 357.908 33.0296 360.437C32.4396 360.965 31.7365 361.349 30.9748 361.559C30.213 361.77 29.4131 361.802 28.6372 361.652C27.8613 361.502 27.1301 361.175 26.5005 360.696C25.871 360.217 25.36 359.598 25.0071 358.889C23.5663 356.779 22.8118 354.273 22.8472 351.715C23.718 348.655 25.0536 345.747 26.807 343.096C26.807 342.838 27.527 342.838 27.887 342.631C37.3494 337.986 47.6346 333.289 57.9198 328.851C61.7253 327.148 65.7366 325.857 69.6964 324.412C69.6964 324.412 69.6964 324.877 69.6964 325.135C60.0797 330.915 49.8973 336.025 42.7491 345.212C50.1031 343.973 55.4514 338.709 61.9311 335.818C68.4107 332.928 75.7133 330.296 82.5529 327.612ZM107.135 141.449C107.135 140.486 107.032 139.557 106.826 138.662C106.363 130.146 105.798 121.682 105.54 113.218C105.777 111.455 106.208 109.724 106.826 108.056C107.15 106.094 107.322 104.11 107.34 102.121C107.34 101.45 106.672 100.728 106.826 100.108C107.546 97.1147 108.42 94.1213 109.295 91.0762C124.157 101.398 131.305 125.553 115.826 142.326C113.357 138.404 110.066 142.223 107.135 141.449ZM232.769 32.0325C232.769 29.8648 231.997 26.8714 233.129 25.5295C235.957 22.5876 234.774 18.8716 236.214 15.9297C237.342 13.1106 239.23 10.6622 241.665 8.85891C244.686 7.65031 247.933 7.12176 251.179 7.31057C254.247 7.35709 257.307 7.63312 260.333 8.13635L273.035 9.63309C271.75 10.3556 270.31 10.6653 269.693 11.5943C268.165 14.8103 265.456 17.3074 262.133 18.5619C261.67 18.5619 261.002 19.2328 261.002 19.5941C260.745 23.2069 257.042 23.4134 255.088 25.2714C252.358 27.2807 249.341 28.8641 246.139 29.9681C245.858 30.1236 245.626 30.3563 245.471 30.639C243.825 33.5809 241.254 33.5809 238.426 32.9099C236.78 32.497 235.134 32.3938 232.769 32.0325ZM85.5357 169.681C85.1915 170.411 84.7214 171.075 84.1471 171.642C83.2215 172.313 81.9873 173.397 81.113 173.139C79.4674 172.726 77.256 172.261 77.616 169.629C77.7132 167.895 77.9366 166.17 78.2846 164.468C81.3187 153.733 83.9415 142.843 87.747 132.365C90.7611 125.551 94.1962 118.932 98.0322 112.547H99.1636C99.5569 113.543 99.8331 114.582 99.9864 115.643C100.295 124.727 100.706 133.811 100.655 142.946C100.628 144.45 100.192 145.917 99.3944 147.191C98.5968 148.464 97.4679 149.495 96.1295 150.171C92.4759 152.718 89.1732 155.738 86.307 159.152C84.9554 160.53 84.1359 162.345 83.9946 164.274C83.8533 166.203 84.3995 168.119 85.5357 169.681ZM226.803 155.539C224.849 154.094 223.152 152.7 221.301 151.513C220.51 151.137 219.683 150.843 218.832 150.636C218.832 151.617 218.061 152.7 218.267 153.526C218.884 155.849 219.758 158.068 220.529 160.391L218.575 160.855C213.432 161.887 211.581 160.545 211.17 155.333C211.17 153.268 211.17 151.204 210.81 148.623C209.627 149.242 208.238 149.552 207.878 150.326C207.004 152.288 206.696 154.507 205.924 156.52C205.026 158.981 203.961 161.378 202.736 163.694C202.736 164.003 201.45 163.694 200.73 163.694C201.296 159.668 201.039 159.358 197.027 159.049C195.022 159.049 193.325 158.584 193.376 156.881L197.079 153.371C195.961 152.621 194.792 151.948 193.582 151.359C192.767 151.198 191.942 151.095 191.114 151.049C190.548 151.049 190.136 150.326 189.622 149.913C190.351 149.599 191.151 149.492 191.936 149.604C194.096 149.604 196.565 150.12 197.079 147.488C197.079 146.61 194.919 144.959 193.479 144.185C192.054 143.646 190.758 142.812 189.677 141.735C188.595 140.659 187.753 139.366 187.205 137.939C188.594 138.559 189.468 139.023 190.394 139.333C193.292 140.88 196.607 141.459 199.856 140.985C202.787 140.262 206.439 139.591 207.776 144.081C207.961 144.517 208.25 144.9 208.618 145.197C208.986 145.494 209.42 145.696 209.884 145.784C213.079 146.566 216.375 146.845 219.655 146.61C223.674 145.761 227.614 144.569 231.432 143.049C231.432 146.455 231.792 149.913 231.997 153.371C229.786 152.391 229.786 152.391 226.803 155.539ZM76.3304 187.332C74.0676 184.803 72.4734 181.603 70.1078 180.88C67.7422 180.158 64.6566 181.913 61.9311 182.584C62.0148 183.562 62.0148 184.547 61.9311 185.525C61.0054 189.448 60.0797 193.37 59.0512 197.293C58.6398 198.893 58.0226 200.441 57.5084 202.041C56.9941 203.641 55.5542 203.848 54.7314 202.764C53.6628 201.133 52.7503 199.405 52.0058 197.603L52.7772 197.035L47.6346 193.99C50.6687 193.99 53.2401 194.815 53.9086 191.616C54.2207 190.535 54.2715 189.396 54.0568 188.292C53.8421 187.188 53.368 186.151 52.6741 185.268C51.9801 184.385 51.0863 183.681 50.0667 183.214C49.0471 182.747 47.9312 182.531 46.8117 182.584C46.8117 182.584 46.5546 182.584 45.7318 181.655C49.5888 176.493 53.4972 170.816 57.0456 165.758L78.9017 179.59C78.4903 181.964 77.3075 184.648 76.3304 187.332ZM103.535 189.396C100.104 189.259 96.6689 189.346 93.2496 189.654C91.612 189.779 90.0705 190.479 88.8951 191.63C87.7198 192.781 86.9857 194.311 86.8213 195.951C86.8213 196.312 85.9471 196.622 85.4842 196.983C85.1757 196.415 84.5586 195.796 84.61 195.28C85.2271 191.048 85.8442 186.764 86.7699 182.584C86.9431 181.963 87.2491 181.387 87.6665 180.897C88.0839 180.406 88.6028 180.013 89.1869 179.745C92.3239 178.764 93.1982 177.009 91.6554 173.81C96.798 171.074 99.6778 164.726 107.083 163.9C105.695 172.829 104.563 181.448 103.535 189.499V189.396ZM56.5827 156.778C53.8571 154.816 53.6514 154.765 54.5771 151.926C58.357 141.174 61.0785 130.076 62.7025 118.792C62.7025 117.037 63.6281 114.508 64.8109 113.94C67.5655 112.957 70.4345 112.332 73.3477 112.082C72.1649 117.243 71.2906 121.837 69.8507 126.379C68.0508 132.107 65.7366 137.681 63.8338 143.41C62.5625 148.402 60.0702 152.997 56.5827 156.778ZM382.624 399.043C381.92 398.389 381.266 397.681 380.67 396.927C378.86 393.68 376.127 391.048 372.821 389.366C369.515 387.684 365.785 387.028 362.105 387.482C355.42 387.946 351.203 383.043 346.678 377.933C350.536 376.521 354.488 375.382 358.506 374.527C361.061 374.467 363.6 374.942 365.962 375.921C368.688 376.746 371.105 378.088 374.242 379.327C374.602 386.501 380.002 392.075 382.624 399.043ZM273.91 55.3093C265.228 56.5164 256.882 59.4841 249.379 64.0317C248.567 61.3939 248.428 58.5933 248.976 55.8876C249.524 53.1819 250.742 50.6581 252.516 48.5482C252.868 48.3589 253.252 48.2364 253.648 48.187C257.558 47.4882 261.509 47.04 265.476 46.8451C272.727 46.8451 273.807 48.0837 274.064 54.6384C274.065 54.871 274.012 55.1008 273.91 55.3093ZM234.311 244.208C234.288 244.465 234.288 244.724 234.311 244.982C231.072 244.982 227.832 244.982 224.592 244.982C220.118 244.982 215.695 244.259 211.221 243.64C210.09 243.64 208.29 242.505 208.084 241.576C207.107 237.189 206.541 232.647 205.719 227.486C215.695 230.324 225.26 230.789 234.106 234.35C225.56 233.264 216.905 233.385 208.393 234.711C217.407 236.733 226.12 239.926 234.311 244.208ZM319.782 111.514C321.016 113.011 321.685 113.94 322.404 114.714C325.258 118.43 328.576 121.76 332.278 124.624C334.812 126.2 337.002 128.275 338.717 130.723C340.431 133.171 341.635 135.942 342.255 138.869C342.666 140.314 342.564 141.088 340.764 140.985C338.896 140.987 337.051 140.567 335.368 139.753C333.685 138.94 332.207 137.755 331.044 136.288C329.141 133.914 327.29 131.54 325.644 129.062C321.638 124.118 319.555 117.883 319.782 111.514ZM20.1216 367.043C23.1964 369.735 26.4061 372.267 29.7383 374.63C31.1782 375.508 31.6925 376.024 31.2811 377.624C30.0983 382.062 29.0183 386.501 27.9384 390.94C26.8584 395.378 25.9841 399.662 24.9556 403.997C24.7358 404.908 24.4611 405.804 24.1328 406.681H23.5157C22.3329 393.469 21.253 380.462 20.1216 367.043ZM101.272 95.8244H99.935C97.6722 91.4891 95.3066 87.2569 93.2496 82.8699C91.1925 78.483 91.0382 77.7088 95.5638 74.6637C95.7861 74.6423 96.0099 74.6423 96.2323 74.6637C97.6456 76.5612 99.5616 78.022 101.762 78.8798C103.962 79.7376 106.358 79.9577 108.677 79.5152C105.952 85.2441 103.638 90.5601 101.272 95.8244ZM142.413 358.631H142.773C142.773 361.469 142.464 364.256 142.773 367.043C143.082 369.83 143.133 372.927 143.081 375.817C143.093 376.332 142.993 376.843 142.789 377.315C142.585 377.788 142.281 378.21 141.899 378.553C139.003 379.293 135.959 379.201 133.113 378.289C130.267 377.376 127.734 375.679 125.802 373.392C125.955 372.767 126.24 372.182 126.637 371.677C127.035 371.172 127.536 370.758 128.106 370.465C128.677 370.171 129.304 370.004 129.944 369.975C130.585 369.945 131.224 370.055 131.819 370.295C133.563 370.535 135.335 370.149 136.822 369.204C138.309 368.26 139.415 366.818 139.944 365.134C140.922 363.431 141.744 361.056 142.67 358.631H142.413ZM94.6381 414.836C93.0789 416.859 90.8794 418.289 88.4021 418.889C85.9248 419.489 83.3175 419.225 81.0101 418.139C73.5533 415.042 74.119 413.391 77.6674 406.475L94.6381 414.836ZM115.209 66.6639L119.631 65.1156L123.437 63.6188C125.087 62.7821 126.991 62.6045 128.766 63.1217C130.541 63.6389 132.055 64.8126 133.002 66.4058C135.676 70.2251 138.145 74.1476 140.613 77.9152C138.97 77.6434 137.396 77.0474 135.984 76.1615C134.572 75.2756 133.348 74.1174 132.385 72.7541C129.094 68.4703 127.808 68.2639 122.82 69.8638C121.294 70.1183 119.729 69.826 118.397 69.038C117.317 68.78 116.648 67.6961 115.569 66.6639H115.209ZM198.159 223.563C199.839 232.888 201.553 242.281 203.302 251.743L197.49 252.93C198.519 242.814 195.433 233.111 198.159 223.563ZM88.7755 426.5C87.2201 428.513 85.033 429.939 82.5688 430.548C80.1046 431.157 77.5076 430.912 75.199 429.855C71.1878 427.481 70.5706 425.055 72.9877 419.532C76.5361 425.519 83.17 424.229 88.7755 426.5ZM354.392 162.507C355.62 169.695 357.926 176.656 361.231 183.151C361.694 184.029 361.231 185.422 361.231 186.558C360.203 185.938 358.711 185.629 358.248 184.7C356.191 180.519 354.494 176.132 352.592 171.848C350.689 167.565 353.26 165.603 354.392 162.507ZM361.385 193.474L364.317 189.706L382.367 211.176C382.016 211.209 381.662 211.161 381.333 211.036C381.003 210.911 380.706 210.712 380.465 210.454C378.202 208.183 376.299 204.931 373.625 203.848C368.714 201.521 364.482 197.966 361.334 193.525L361.385 193.474ZM135.676 57.9932C137.452 58.2155 139.186 58.7026 140.819 59.4383C143.229 61.3529 145.514 63.4217 147.658 65.6317C147.825 65.922 147.913 66.2513 147.913 66.5865C147.913 66.9217 147.825 67.251 147.658 67.5413C146.984 68.5924 146.171 69.5473 145.241 70.3799C143.441 72.238 141.744 71.9283 140.664 69.5542L135.676 57.9932ZM365.191 222.428C363.7 222.118 362.671 222.015 361.745 221.705C355.471 219.744 355.471 219.744 355.934 213.292C356.134 212.453 356.427 211.64 356.809 210.867C357.683 211.383 358.814 211.641 359.277 212.363C361.334 215.305 363.083 218.712 365.191 222.428ZM332.433 318.528C329.398 313.78 324.462 310.322 322.456 303.974L337.884 316.825L332.433 318.528ZM162.263 249.266L163.086 249.988C161.543 253.704 160.001 257.42 158.406 261.136H157.584C157.584 257.42 152.441 255.975 154.55 251.433L162.263 249.266ZM148.996 321.522C148.636 323.535 148.378 325.599 147.916 327.561C146.606 330.893 145.641 334.352 145.036 337.883C144.266 341.896 142.614 345.687 140.202 348.979C141.346 339.328 144.332 329.989 148.996 321.47V321.522ZM143.853 234.092V234.866L112.997 246.169C122.379 240.259 132.771 236.147 143.647 234.04L143.853 234.092ZM76.0732 440.538L68.9764 450.861H68.1536C68.7193 446.319 69.3364 441.829 69.9535 436.874L76.0732 440.538ZM343.489 214.118L347.758 205.912C348.375 210.093 348.889 213.602 349.455 217.783L338.141 214.789V213.602L343.489 214.118ZM260.23 166.739C256.425 163.023 251.128 160.391 249.945 156.416C252.01 158.195 254.291 159.704 256.733 160.907C259.55 161.677 262.454 162.076 265.373 162.094L260.23 166.739ZM330.478 363.379L318.856 362.398L329.656 355.792C329.913 358.631 330.118 360.798 330.478 363.379ZM238.426 52.5739L237.706 51.7481C238.786 48.9095 239.968 46.0709 241.254 42.8193C242.54 45.4515 243.517 47.4644 244.905 50.1482L238.426 52.5739ZM33.7496 427.635C31.3325 427.635 29.2755 427.945 27.2184 427.945C26.6527 427.945 25.6242 427.377 25.5728 427.016C25.5214 426.655 25.8299 425.158 26.3442 424.9C28.5041 423.919 30.8696 423.197 33.441 422.268C33.5438 424.384 33.6467 425.829 33.7496 427.635ZM248.505 176.08C248.505 173.758 248.248 171.642 248.145 170.042L255.705 170.816C255.139 171.539 254.059 172.261 253.802 173.242C252.979 176.08 251.076 176.493 248.505 176.08ZM329.758 533.646C329.758 534.317 330.016 534.936 330.17 535.607L312.222 539.478L311.914 538.136L329.758 533.646ZM204.021 189.499C203.147 197.241 202.222 204.983 201.347 212.621H200.165C200.384 204.773 201.682 196.992 204.021 189.499ZM196.77 273.884C196.77 270.478 196.77 267.072 197.027 263.562C197.109 263.136 197.286 262.733 197.544 262.385C197.802 262.036 198.136 261.751 198.519 261.549C200.525 260.982 202.582 260.775 205.153 260.311C196.77 268.723 198.107 266.349 196.77 273.884ZM180.623 264.594C180.755 264.431 180.875 264.259 180.983 264.078L190.599 263.562C190.599 265.369 190.599 266.865 190.908 269.136L180.623 264.594ZM88.7755 65.6317C90.0612 67.1284 91.6039 68.109 91.5011 68.9864C91.3982 69.8638 90.0611 70.9993 89.2383 71.9799C88.0331 71.1468 86.9584 70.1379 86.0499 68.9864C85.9471 68.5219 87.5413 67.0768 88.7755 65.6317ZM93.9181 193.422C98.8036 192.854 99.0608 193.009 100.244 196.777C97.518 196.932 94.7924 197.241 93.9181 193.422ZM260.282 174.893L268.767 168.029C268.319 169.96 267.241 171.685 265.703 172.929C264.165 174.173 262.257 174.864 260.282 174.893ZM96.0266 105.527C95.9987 105.201 95.9987 104.873 96.0266 104.547C96.6813 103.89 97.3862 103.286 98.1351 102.74C98.9579 102.173 99.8321 101.76 100.706 101.244C100.98 101.444 101.273 101.617 101.581 101.76C101.272 102.947 101.581 104.805 100.604 105.115C99.1158 105.531 97.5646 105.671 96.0266 105.527ZM52.0573 469.08L50.9773 468.357C52.7772 465.157 54.5257 461.957 56.1199 458.757L57.3027 459.377L52.0573 469.08ZM216.672 251.433C211.53 252.62 210.141 252.001 209.473 247.717L216.672 251.433ZM298.954 170.971L299.623 170.506L304.148 178.609L302.965 179.229L298.954 170.971ZM339.427 143.565C337.854 144.398 336.121 144.879 334.346 144.977C332.571 145.075 330.795 144.787 329.141 144.133L339.427 143.565ZM69.7478 190.016C70.2879 190.431 70.6954 190.996 70.9203 191.641C71.1452 192.286 71.1777 192.982 71.0139 193.645C70.8502 194.308 70.4972 194.909 69.9982 195.373C69.4993 195.838 68.8761 196.146 68.205 196.261C68.5136 194.351 69.0793 192.493 69.6964 190.325L69.7478 190.016ZM469.329 335.302H468.043L469.843 326.27H470.563C470.1 329.367 469.638 332.36 469.329 335.302Z" fill="#147FB0"/>
</svg>
