<svg width="140" height="140" viewBox="0 0 140 140" fill="none" xmlns="http://www.w3.org/2000/svg">
<g opacity="0.8">
<g clip-path="url(#clip0)">
<path d="M105.179 42.7568H34.8214C32.1586 42.7568 30 44.8864 30 47.5134V92.4869C30 95.1138 32.1586 97.2434 34.8214 97.2434H105.179C107.841 97.2434 110 95.1138 110 92.4869V47.5134C110 44.8864 107.841 42.7568 105.179 42.7568Z" fill="white"/>
<path d="M85.4712 56.0281V63.7747C85.4712 64.9912 86.4707 65.9771 87.7036 65.9771H100.021C101.254 65.9771 102.253 64.991 102.253 63.7747V56.0281C102.253 54.8116 101.254 53.8257 100.021 53.8257H87.7038C86.4707 53.8257 85.4712 54.8118 85.4712 56.0281Z" fill="#147FB0"/>
<path d="M37.9077 50.5747H41.3782C42.0651 50.5747 42.5774 50.603 42.915 50.6595C43.2526 50.7159 43.5546 50.8337 43.8211 51.0129C44.0876 51.192 44.3097 51.4307 44.4874 51.7287C44.665 52.0266 44.7539 52.3607 44.7539 52.7306C44.7539 53.1317 44.6443 53.4998 44.4252 53.8348C44.206 54.1699 43.9089 54.421 43.5339 54.5885C44.063 54.7404 44.4696 54.9994 44.7539 55.3656C45.0381 55.7317 45.1803 56.1621 45.1803 56.6567C45.1803 57.0462 45.0885 57.4251 44.9049 57.7932C44.7212 58.1612 44.4706 58.4553 44.1527 58.6754C43.8349 58.8955 43.443 59.0309 42.9772 59.0814C42.6851 59.1126 41.9802 59.132 40.863 59.1399H37.9077V50.5747ZM39.6606 52.0002V53.9808H40.8095C41.4925 53.9808 41.917 53.971 42.0827 53.9516C42.3827 53.9166 42.6186 53.8143 42.7905 53.6449C42.9623 53.4755 43.0481 53.2525 43.0481 52.976C43.0481 52.711 42.9741 52.496 42.826 52.3303C42.6779 52.1647 42.4579 52.0645 42.1657 52.0295C41.992 52.0099 41.4926 52.0003 40.6674 52.0003H39.6606V52.0002ZM39.6606 55.4064V57.6968H41.2834C41.9151 57.6968 42.3159 57.6792 42.4855 57.6442C42.7461 57.5975 42.9584 57.4836 43.1222 57.3024C43.2861 57.1212 43.3681 56.8789 43.3681 56.575C43.3681 56.318 43.3048 56.0997 43.1786 55.9206C43.0524 55.7414 42.8697 55.611 42.6307 55.5291C42.3917 55.4472 41.8736 55.4064 41.0762 55.4064H39.6606Z" fill="#147FB0"/>
<path d="M54.4901 59.1399H52.5831L51.8251 57.1944H48.3547L47.638 59.1399H45.7783L49.16 50.5747H51.0137L54.4901 59.1399ZM51.2624 55.7512L50.0661 52.5728L48.8935 55.7512H51.2624Z" fill="#147FB0"/>
<path d="M55.4375 59.1399V50.5747H57.1431L60.6964 56.2946V50.5747H62.325V59.1399H60.5661L57.0661 53.5544V59.1399H55.4375Z" fill="#147FB0"/>
<path d="M64.2026 59.1399V50.5747H65.9556V54.3782L69.4971 50.5747H71.8542L68.5852 53.9108L72.0319 59.1399H69.7636L67.3769 55.1202L65.9556 56.5516V59.1399H64.2026Z" fill="#147FB0"/>
<path d="M41.1583 85.2485H34.3647V89.4273H41.1583V85.2485Z" fill="#147FB0"/>
<path d="M57.392 85.2485H46.6826V89.4273H57.392V85.2485Z" fill="#147FB0"/>
<path d="M72.7298 85.2485H60.6348V89.4273H72.7298V85.2485Z" fill="#147FB0"/>
<path d="M90.8254 85.2485H76.7305V89.4273H90.8254V85.2485Z" fill="#147FB0"/>
<path d="M105.635 85.2485H95.4443V89.4273H105.635V85.2485Z" fill="#147FB0"/>
</g>
<circle cx="70" cy="70" r="68.5" stroke="white" stroke-width="3"/>
</g>
<defs>
<clipPath id="clip0">
<rect width="80" height="54" fill="white" transform="translate(30 43)"/>
</clipPath>
</defs>
</svg>
