<svg width="140" height="140" viewBox="0 0 140 140" fill="none" xmlns="http://www.w3.org/2000/svg">
<g opacity="0.8">
<circle cx="70" cy="70" r="68.5" stroke="white" stroke-width="3"/>
<g clip-path="url(#clip0)">
<path d="M83.5088 30H55.4914C49.9605 30 45.5176 34.4545 45.5176 40V100C45.5176 105.545 50.0511 110 55.4914 110H83.5088C89.0398 110 93.4827 105.545 93.4827 100V40C93.4827 34.4545 89.0398 30 83.5088 30ZM69.5455 103.545C67.0067 103.545 65.0119 101.545 65.0119 99C65.0119 96.4545 67.0067 94.4545 69.5455 94.4545C72.0843 94.4545 74.079 96.4545 74.079 99C74.079 101.545 72.0843 103.545 69.5455 103.545ZM88.9491 89.6364H50.0511V43.3636H88.9491V89.6364Z" fill="white"/>
</g>
</g>
<defs>
<clipPath id="clip0">
<rect width="47" height="80" fill="white" transform="translate(46 30)"/>
</clipPath>
</defs>
</svg>
