<svg width="80" height="80" viewBox="0 0 80 80" fill="none" xmlns="http://www.w3.org/2000/svg">
<path d="M51.6925 25.8477H28.3075C23.7194 25.8477 20 29.567 20 34.1551V45.8452C20 50.4333 23.7194 54.1527 28.3075 54.1527H51.6925C56.2806 54.1527 60 50.4333 60 45.8452V34.1551C60 29.567 56.2806 25.8477 51.6925 25.8477ZM46.0742 40.5689L35.1363 45.7857C34.8448 45.9247 34.5082 45.7122 34.5082 45.3893V34.6298C34.5082 34.3023 34.8537 34.0901 35.1457 34.2381L46.0837 39.7809C46.4089 39.9457 46.4032 40.412 46.0742 40.5689Z" fill="white"/>
<circle opacity="0.5" cx="40" cy="40" r="39" stroke="white" stroke-width="2"/>
</svg>
