<svg width="59" height="57" viewBox="0 0 59 57" fill="none" xmlns="http://www.w3.org/2000/svg">
<g clip-path="url(#clip0)">
<path d="M37.0258 44.5801C35.2315 42.8485 33.7504 40.8773 32.6326 38.7336C32.0936 37.6748 30.8319 36.9513 29.8198 36.9643L24.037 36.1848C22.2554 30.5278 22.2546 25.9848 24.0354 20.3824L29.6592 19.6151C30.9129 19.6159 32.053 18.9499 32.642 17.8611C33.7662 15.7066 35.2457 13.7355 37.0407 12.0031C38.3375 10.7516 38.3375 8.71531 37.0409 7.46388L31.6588 2.26959C30.3621 1.01816 28.2522 1.01816 26.9555 2.26959C12.0922 16.6143 12.0923 39.9543 26.9556 54.299C28.2522 55.5505 30.3622 55.5505 31.6588 54.299L37.0259 49.1192C38.3224 47.8678 38.3224 45.8315 37.0258 44.5801Z" fill="white"/>
</g>
<defs>
<clipPath id="clip0">
<rect width="40.7295" height="40.7295" fill="white" transform="matrix(0.719549 0.694442 -0.719549 0.694442 29.3071 0)"/>
</clipPath>
</defs>
</svg>
