<svg width="112" height="119" viewBox="0 0 112 119" fill="none" xmlns="http://www.w3.org/2000/svg">
<path d="M59.9169 57.8627C60.6795 58.3821 61.8077 58.1593 62.3203 57.4009L83.1115 26.6547C83.6483 25.8611 83.4425 24.781 82.6516 24.2423C81.8612 23.7038 80.7849 23.91 80.2483 24.7041L59.4571 55.4502C58.9202 56.2436 59.1263 57.324 59.9169 57.8627Z" fill="white"/>
<path d="M82.5454 58.1616C86.1462 58.1616 89.076 54.5472 89.076 50.1042C88.7071 39.4106 76.3824 39.4132 76.0146 50.1042C76.0146 54.5472 78.9443 58.1616 82.5454 58.1616ZM82.5454 45.5206C84.2095 45.5206 85.6153 47.6195 85.6153 50.1042C85.6153 52.5889 84.2095 54.6878 82.5454 54.6878C80.8812 54.6878 79.4752 52.5889 79.4752 50.1042C79.4752 47.6195 80.8814 45.5206 82.5454 45.5206Z" fill="white"/>
<path d="M66.2911 31.9998C66.2911 27.5568 63.3615 23.9424 59.7604 23.9424C51.0997 24.372 51.103 39.6297 59.7604 40.0572C63.3615 40.0572 66.2911 36.4426 66.2911 31.9998ZM56.6905 31.9998C56.6905 29.5151 58.0965 27.4162 59.7607 27.4162C61.4248 27.4162 62.8306 29.5151 62.8306 31.9998C62.8306 34.4845 61.4248 36.5834 59.7607 36.5834C58.0965 36.5834 56.6905 34.4843 56.6905 31.9998Z" fill="white"/>
<path d="M58.8665 80.1155C101.336 92.8225 130.737 39.4521 97.6674 9.96739C96.943 9.3414 95.8505 9.42292 95.2269 10.1501C94.6035 10.8771 94.6847 11.9736 95.4089 12.5996C126.107 40.0496 97.9471 89.3742 58.8665 76.4543V64.6514C58.8665 63.1628 57.969 61.0667 53.6942 59.5349C48.8171 57.7874 43.1903 57.6325 38.0998 58.3548C21.7832 26.3831 55.1773 -8.24728 87.4522 7.33214C88.3098 7.75271 89.3466 7.39583 89.7663 6.53386C90.1857 5.67211 89.83 4.63205 88.9715 4.21079C54.158 -12.6315 17.7872 24.1902 34.5878 59.0697C34.0705 59.2121 33.5733 59.3666 33.1034 59.5349C28.8286 61.0669 27.9311 63.163 27.9311 64.6514V76.2128C24.412 74.5409 20.6172 74.0058 15.946 73.9421C13.6552 74.0203 13.6546 77.3358 15.9442 77.4159C19.416 77.4177 22.6542 77.8946 25.0624 78.7586C27.4326 79.609 27.9314 80.4675 27.9314 80.6014C27.9314 80.7355 27.4316 81.5954 25.0564 82.4462C19.5478 84.4203 12.2989 84.4193 6.79277 82.4462C4.41753 81.5951 3.9178 80.7352 3.9178 80.6014C3.9178 80.4439 4.52505 79.4541 7.4111 78.5511C9.57523 77.7906 8.59029 74.6264 6.3814 75.2348C1.48488 76.7667 0.457031 78.9988 0.457031 80.6014V112.002C0.457031 113.491 1.35452 115.587 5.62926 117.119C11.8859 119.36 19.9654 119.36 26.2199 117.119C27.7747 116.562 28.8812 115.93 29.6618 115.279C30.4423 115.93 31.5488 116.562 33.1036 117.119C39.3604 119.36 47.4399 119.36 53.6945 117.119C55.2493 116.562 56.3558 115.93 57.1363 115.279C57.9168 115.93 59.0234 116.562 60.5782 117.119C66.8348 119.36 74.9143 119.36 81.1688 117.119C85.4436 115.587 86.341 113.491 86.341 112.002V96.3017C86.341 94.813 85.4436 92.7169 81.1688 91.1852C74.9122 88.9434 66.8327 88.9441 60.5782 91.1852C59.9333 91.4163 59.3664 91.6604 58.8667 91.9133C58.8649 89.6491 58.8699 82.9293 58.8649 80.5671C58.8676 80.5043 58.866 80.1836 58.8665 80.1155ZM82.88 104.152C82.88 104.286 82.3803 105.146 80.0051 105.997C74.4964 107.971 67.2475 107.97 61.7414 105.997C59.3662 105.146 58.8665 104.286 58.8665 104.152V100.691C59.3662 100.943 59.9331 101.188 60.5779 101.419C66.8345 103.66 74.914 103.66 81.1686 101.419C81.8134 101.188 82.3803 100.943 82.88 100.691V104.152ZM55.4057 72.5018C55.4057 72.6359 54.906 73.4958 52.5307 74.3466C47.0221 76.3207 39.773 76.32 34.2669 74.3466C31.8916 73.4956 31.3919 72.6357 31.3919 72.5018V69.0403C31.8916 69.2929 32.4585 69.5372 33.1034 69.7684C39.3602 72.0102 47.4397 72.0095 53.6942 69.7684C54.3391 69.5372 54.906 69.2932 55.4057 69.0403V72.5018ZM33.1034 77.6183C39.9538 80.0141 48.7827 79.9467 55.4057 76.8904V80.4768C55.4057 80.6109 54.906 81.4708 52.5307 82.3219C47.0217 84.2959 39.7734 84.2948 34.2669 82.3219C31.8916 81.4708 31.3919 80.6109 31.3919 80.4768V76.8904C31.8916 77.1431 32.4583 77.3872 33.1034 77.6183ZM27.9311 96.3017C27.9311 96.4358 27.4314 97.2957 25.0562 98.1468C19.5471 100.121 12.2991 100.12 6.79254 98.1468C4.4173 97.2957 3.91757 96.4358 3.91757 96.3017V92.8401C4.4173 93.0928 4.98418 93.3371 5.62903 93.5683C11.8856 95.81 19.9651 95.8093 26.2197 93.5683C26.8645 93.3371 27.4314 93.093 27.9311 92.8401V96.3017ZM3.91757 100.69C4.4173 100.943 4.98418 101.187 5.62903 101.418C11.8856 103.66 19.9651 103.659 26.2197 101.418C26.8645 101.187 27.4314 100.943 27.9311 100.69V104.152C27.9311 104.286 27.4314 105.146 25.0562 105.997C19.5475 107.971 12.2986 107.97 6.79254 105.997C4.4173 105.146 3.91757 104.286 3.91757 104.152V100.69ZM31.3919 100.69C31.8916 100.943 32.4585 101.187 33.1034 101.418C39.3602 103.66 47.4397 103.659 53.6942 101.418C54.3391 101.187 54.906 100.943 55.4057 100.69V104.152C55.4057 104.286 54.906 105.146 52.5307 105.997C47.0221 107.971 39.773 107.97 34.2669 105.997C31.8916 105.146 31.3919 104.286 31.3919 104.152V100.69ZM52.5307 98.1468C47.0217 100.121 39.7734 100.12 34.2669 98.1468C31.8916 97.2957 31.3919 96.4358 31.3919 96.3017V92.8401C31.8916 93.0928 32.4585 93.3371 33.1034 93.5683C39.3602 95.81 47.4397 95.8093 53.6942 93.5683C54.3391 93.3371 54.906 93.093 55.4057 92.8401V96.3017C55.4057 96.4358 54.906 97.2957 52.5307 98.1468ZM55.4057 88.4515C55.4057 88.5856 54.906 89.4453 52.5307 90.2964C47.0217 92.2704 39.7734 92.2693 34.2669 90.2964C31.8916 89.4453 31.3919 88.5854 31.3919 88.4515V84.8652C31.8916 85.1178 32.4585 85.3622 33.1034 85.5933C39.3602 87.8351 47.4397 87.8344 53.6942 85.5933C54.3391 85.3622 54.906 85.118 55.4057 84.8652V88.4515ZM34.2669 62.8066C39.7736 60.8335 47.0256 60.8339 52.5307 62.8066C54.906 63.6577 55.4057 64.5176 55.4057 64.6514C55.4057 64.7853 54.906 65.6454 52.5307 66.4965C47.0217 68.4706 39.7734 68.4694 34.2669 66.4965C31.8916 65.6454 31.3919 64.7855 31.3919 64.6514C31.3919 64.5173 31.8916 63.6577 34.2669 62.8066ZM5.62903 85.7179C12.4795 88.1134 21.3082 88.0463 27.9311 84.99V88.4518C27.9311 88.5859 27.4314 89.4457 25.0562 90.2966C19.5471 92.2707 12.2991 92.2697 6.79254 90.2966C4.4173 89.4455 3.91757 88.5856 3.91757 88.4518V84.99C4.41707 85.2426 4.98395 85.4867 5.62903 85.7179ZM25.0562 113.847C19.5471 115.821 12.2991 115.82 6.79254 113.847C4.4173 112.996 3.91757 112.136 3.91757 112.002V108.541C11.1079 111.787 20.7427 111.787 27.9311 108.541V112.002C27.9311 112.136 27.4314 112.996 25.0562 113.847ZM52.5307 113.847C47.0217 115.821 39.7734 115.82 34.2669 113.847C31.8916 112.996 31.3919 112.136 31.3919 112.002V108.541C38.5822 111.787 48.2172 111.787 55.4057 108.541V112.002C55.4057 112.136 54.906 112.996 52.5307 113.847ZM80.0051 113.847C74.496 115.821 67.248 115.82 61.7414 113.847C59.3662 112.996 58.8665 112.136 58.8665 112.002V108.541C66.0568 111.787 75.6916 111.787 82.88 108.541V112.002C82.88 112.136 82.3803 112.996 80.0051 113.847ZM61.7414 94.4569C67.2505 92.4828 74.4985 92.4837 80.0051 94.4569C82.3803 95.3079 82.88 96.1678 82.88 96.3017C82.88 96.4355 82.3803 97.2957 80.0051 98.1468C74.496 100.121 67.248 100.12 61.7414 98.1468C59.3662 97.2957 58.8665 96.4358 58.8665 96.3017C58.8665 96.1676 59.3662 95.3079 61.7414 94.4569Z" fill="white"/>
</svg>
