<svg width="117" height="117" viewBox="0 0 117 117" fill="none" xmlns="http://www.w3.org/2000/svg">
<g clip-path="url(#clip0)">
<path d="M107.816 22.6745H104.554V17.547C104.554 16.6031 103.789 15.8379 102.844 15.8379H20.1929C19.2488 15.8379 18.4838 16.6031 18.4838 17.547C18.4838 18.491 19.2488 19.2562 20.1929 19.2562H50.616V28.1438H47.7674C46.8232 28.1438 46.0582 28.9091 46.0582 29.853C46.0582 30.7969 46.8232 31.5621 47.7674 31.5621H50.616V43.944H47.7674C46.8232 43.944 46.0582 44.7092 46.0582 45.6531C46.0582 46.597 46.8232 47.3623 47.7674 47.3623H50.616V59.7441H47.7674C46.8232 59.7441 46.0582 60.5094 46.0582 61.4533C46.0582 62.3972 46.8232 63.1624 47.7674 63.1624H50.616V75.5445H47.7674C46.8232 75.5445 46.0582 76.3097 46.0582 77.2537C46.0582 78.1976 46.8232 78.9628 47.7674 78.9628H50.616V90.5851H3.51497V19.2562H12.2169C13.161 19.2562 13.926 18.491 13.926 17.547C13.926 16.6031 13.161 15.8379 12.2169 15.8379H1.80581C0.861671 15.8379 0.0966525 16.6031 0.0966525 17.547V22.6745H-3.16556C-4.73639 22.6745 -6.01416 23.9523 -6.01416 25.5231V97.9914C-6.01416 99.5623 -4.73639 100.84 -3.16556 100.84H107.816C109.387 100.84 110.664 99.5623 110.664 97.9914V25.5231C110.664 23.9523 109.387 22.6745 107.816 22.6745ZM107.246 97.4217H-2.59584V26.0928H0.0966525V92.2943C0.0966525 93.2382 0.861671 94.0034 1.80581 94.0034H65.0868C66.031 94.0034 66.796 93.2382 66.796 92.2943C66.796 91.3503 66.031 90.5851 65.0868 90.5851H54.0343V78.9628H56.8829C57.827 78.9628 58.592 78.1976 58.592 77.2537C58.592 76.3097 57.827 75.5445 56.8829 75.5445H54.0343V63.1627H56.8829C57.827 63.1627 58.592 62.3974 58.592 61.4535C58.592 60.5096 57.827 59.7444 56.8829 59.7444H54.0343V47.3625H56.8829C57.827 47.3625 58.592 46.5973 58.592 45.6534C58.592 44.7095 57.827 43.9442 56.8829 43.9442H54.0343V31.5621H56.8829C57.827 31.5621 58.592 30.7969 58.592 29.853C58.592 28.9091 57.827 28.1438 56.8829 28.1438H54.0343V19.2562H101.135V90.5851H73.0629C72.1188 90.5851 71.3538 91.3503 71.3538 92.2943C71.3538 93.2382 72.1188 94.0034 73.0629 94.0034H102.844C103.789 94.0034 104.554 93.2382 104.554 92.2943V26.0928H107.246V97.4217Z" fill="white"/>
<path d="M25.9141 25.6367C17.1732 25.6367 10.0615 32.7482 10.0615 41.4893C10.0615 50.2304 17.173 57.3418 25.9141 57.3418C34.6552 57.3418 41.7667 50.2304 41.7667 41.4893C41.7667 32.7482 34.6552 25.6367 25.9141 25.6367ZM25.9141 53.9233C19.0579 53.9233 13.4798 48.3453 13.4798 41.4891C13.4798 34.6328 19.0581 29.055 25.9141 29.055C32.7701 29.055 38.3483 34.633 38.3483 41.4893C38.3483 48.3455 32.7703 53.9233 25.9141 53.9233Z" fill="white"/>
<path d="M31.1816 37.1334L25.1829 43.1323L21.7415 39.691C21.0738 39.0235 19.9918 39.0235 19.3243 39.691C18.6569 40.3585 18.6569 41.4407 19.3243 42.108L23.9742 46.7578C24.308 47.0914 24.7456 47.2585 25.1829 47.2585C25.6202 47.2585 26.0577 47.0917 26.3916 46.7578L33.599 39.5504C34.2665 38.8829 34.2665 37.8007 33.599 37.1334C32.9311 36.4659 31.8491 36.4659 31.1816 37.1334Z" fill="white"/>
<path d="M78.7361 56.4305C85.6573 56.4305 91.7248 52.0035 93.8341 45.4148C94.1222 44.5158 93.6265 43.5537 92.7277 43.2659C91.8285 42.9785 90.8668 43.4737 90.5788 44.3725C88.9243 49.5401 84.1651 53.0122 78.7361 53.0122C71.8799 53.0122 66.3019 47.4342 66.3019 40.5779C66.3019 33.7217 71.8799 28.1437 78.7361 28.1437C84.3581 28.1437 89.2973 31.933 90.7472 37.3588C90.9908 38.2706 91.9274 38.8122 92.8399 38.5686C93.7519 38.325 94.2936 37.3882 94.0499 36.4762C92.2009 29.5575 85.9036 24.7256 78.7363 24.7256C69.9955 24.7256 62.8838 31.8371 62.8838 40.5782C62.8838 49.3192 69.995 56.4305 78.7361 56.4305Z" fill="white"/>
<path d="M84.6428 34.9274C83.975 34.2599 82.893 34.2599 82.2255 34.9274L79.32 37.8329L76.4144 34.9274C75.7467 34.2599 74.6647 34.2599 73.9972 34.9274C73.3297 35.5949 73.3297 36.6771 73.9972 37.3444L76.9028 40.2499L73.9972 43.1555C73.3297 43.823 73.3297 44.9052 73.9972 45.5725C74.3311 45.9061 74.7686 46.0731 75.2059 46.0731C75.6432 46.0731 76.0808 45.9063 76.4146 45.5725L79.3202 42.6669L82.2258 45.5725C82.5596 45.9061 82.9972 46.0731 83.4345 46.0731C83.8718 46.0731 84.3094 45.9063 84.6432 45.5725C85.3107 44.905 85.3107 43.8227 84.6432 43.1555L81.7376 40.2499L84.6432 37.3444C85.3102 36.6769 85.3102 35.5946 84.6428 34.9274Z" fill="white"/>
<path d="M36.5106 61.8711H15.3171C14.3729 61.8711 13.6079 62.6363 13.6079 63.5803C13.6079 64.5242 14.3729 65.2894 15.3171 65.2894H36.5106C37.4548 65.2894 38.2198 64.5242 38.2198 63.5803C38.2198 62.6363 37.4548 61.8711 36.5106 61.8711Z" fill="white"/>
<path d="M36.5106 68.0244H15.3171C14.3729 68.0244 13.6079 68.7897 13.6079 69.7336C13.6079 70.6775 14.3729 71.4427 15.3171 71.4427H36.5106C37.4548 71.4427 38.2198 70.6775 38.2198 69.7336C38.2198 68.7897 37.4548 68.0244 36.5106 68.0244Z" fill="white"/>
<path d="M36.5106 74.1768H15.3171C14.3729 74.1768 13.6079 74.942 13.6079 75.8859C13.6079 76.8298 14.3729 77.5951 15.3171 77.5951H36.5106C37.4548 77.5951 38.2198 76.8298 38.2198 75.8859C38.2198 74.942 37.4548 74.1768 36.5106 74.1768Z" fill="white"/>
<path d="M36.5106 80.3301H15.3171C14.3729 80.3301 13.6079 81.0953 13.6079 82.0392C13.6079 82.9832 14.3729 83.7484 15.3171 83.7484H36.5106C37.4548 83.7484 38.2198 82.9832 38.2198 82.0392C38.2198 81.0953 37.4548 80.3301 36.5106 80.3301Z" fill="white"/>
<path d="M89.3329 61.8711H68.1393C67.1952 61.8711 66.4302 62.6363 66.4302 63.5803C66.4302 64.5242 67.1952 65.2894 68.1393 65.2894H89.3329C90.2771 65.2894 91.0421 64.5242 91.0421 63.5803C91.0421 62.6363 90.2768 61.8711 89.3329 61.8711Z" fill="white"/>
<path d="M89.3329 68.0244H68.1393C67.1952 68.0244 66.4302 68.7897 66.4302 69.7336C66.4302 70.6775 67.1952 71.4427 68.1393 71.4427H89.3329C90.2771 71.4427 91.0421 70.6775 91.0421 69.7336C91.0421 68.7897 90.2768 68.0244 89.3329 68.0244Z" fill="white"/>
<path d="M89.3329 74.1768H68.1393C67.1952 74.1768 66.4302 74.942 66.4302 75.8859C66.4302 76.8298 67.1952 77.5951 68.1393 77.5951H89.3329C90.2771 77.5951 91.0421 76.8298 91.0421 75.8859C91.0421 74.942 90.2768 74.1768 89.3329 74.1768Z" fill="white"/>
<path d="M91.0421 82.0392C91.0421 81.0953 90.2771 80.3301 89.3329 80.3301H68.1393C67.1952 80.3301 66.4302 81.0953 66.4302 82.0392C66.4302 82.9832 67.1952 83.7484 68.1393 83.7484H89.3329C90.2768 83.7484 91.0421 82.9832 91.0421 82.0392Z" fill="white"/>
</g>
<defs>
<clipPath id="clip0">
<rect width="116.679" height="116.679" fill="white"/>
</clipPath>
</defs>
</svg>
