<svg width="80" height="80" viewBox="0 0 80 80" fill="none" xmlns="http://www.w3.org/2000/svg">
<path d="M20.7065 39.2862L29.9233 42.7262L33.4908 54.1991C33.7191 54.9339 34.6176 55.2055 35.214 54.7179L40.3516 50.5296C40.8901 50.0908 41.6572 50.069 42.22 50.4775L51.4864 57.2051C52.1244 57.6688 53.0282 57.3192 53.1882 56.5483L59.9764 23.8962C60.151 23.054 59.3236 22.3515 58.5217 22.6616L20.6957 37.2538C19.7623 37.6138 19.7704 38.9354 20.7065 39.2862ZM32.9159 40.895L50.9289 29.8007C51.2526 29.6019 51.5857 30.0396 51.3077 30.2975L36.4417 44.1162C35.9192 44.6026 35.5821 45.2535 35.4867 45.96L34.9803 49.7128C34.9132 50.2139 34.2093 50.2636 34.0711 49.7787L32.1235 42.9354C31.9004 42.1548 32.2255 41.3211 32.9159 40.895Z" fill="white"/>
<circle opacity="0.5" cx="40" cy="40" r="39" stroke="white" stroke-width="2"/>
</svg>
