<svg width="54" height="54" viewBox="0 0 54 54" fill="none" xmlns="http://www.w3.org/2000/svg">
<rect opacity="0.1" width="54" height="54" rx="27" fill="#147FB0"/>
<g clip-path="url(#clip0)">
<path d="M31.2775 15.1627H28.1062V12.2126H35.1127C35.4815 12.2126 35.8502 12.5813 35.8502 12.9501C35.8502 13.5401 36.3666 14.0564 36.9565 14.0564C37.5465 14.0564 38.0628 13.5401 38.0628 12.9501C38.0628 11.3275 36.7353 10 35.1127 10H18.8871C17.2646 10 15.937 11.3275 15.937 12.9501C15.937 13.5401 16.4533 14.0564 17.0433 14.0564C17.6333 14.0564 18.1496 13.5401 18.1496 12.9501C18.1496 12.5076 18.4446 12.2126 18.8871 12.2126H25.8936V15.0889H22.7223C19.1084 15.0889 16.232 18.039 16.232 21.5792V34.8547C16.232 36.3298 17.2646 37.5835 18.7396 37.8048L16.6008 41.8612C16.232 42.5988 16.527 43.4837 17.1908 43.8525C17.4121 44.0001 17.6333 44.0001 17.8546 44.0001C18.3709 44.0001 18.8871 43.705 19.1821 43.1888L19.6246 42.3037H34.2276L34.6701 43.1888C34.9652 43.7051 35.4814 44.0001 35.9977 44.0001C36.2189 44.0001 36.4401 43.9263 36.6615 43.8525C37.399 43.4837 37.6941 42.5988 37.2515 41.8612L35.1127 37.8048C36.514 37.5835 37.6203 36.3298 37.6203 34.8547V21.6529C37.7678 18.039 34.8177 15.1627 31.2775 15.1627ZM33.0476 35.2235C31.8676 35.2235 30.9087 34.2646 30.9087 33.0845C30.9087 31.9046 31.8675 30.9457 33.0476 30.9457C34.2276 30.9457 35.1865 31.9046 35.1865 33.0845C35.1865 34.2646 34.2276 35.2235 33.0476 35.2235ZM18.8871 22.4642C18.8871 20.1779 20.7309 18.4078 23.0173 18.4078H31.1301C33.4164 18.4078 35.2602 20.2516 35.2602 22.4642V26.0781C35.2602 26.8894 34.5963 27.4795 33.7852 27.4795H20.2884C19.4771 27.4795 18.8134 26.8894 18.8134 26.0781C18.8871 26.0781 18.8871 22.4642 18.8871 22.4642ZM20.9521 30.872C22.1322 30.872 23.091 31.8308 23.091 33.0109C23.091 34.1908 22.1322 35.1497 20.9521 35.1497C19.7721 35.1497 18.8133 34.1909 18.8133 33.0109C18.8134 31.8308 19.7722 30.872 20.9521 30.872ZM20.8047 40.2386L21.9847 37.9523H31.9414L33.1213 40.2386H20.8047Z" fill="#147FB0"/>
</g>
<defs>
<clipPath id="clip0">
<rect width="34" height="34" fill="white" transform="translate(10 10)"/>
</clipPath>
</defs>
</svg>
