<svg width="54" height="54" viewBox="0 0 54 54" fill="none" xmlns="http://www.w3.org/2000/svg">
<rect opacity="0.1" width="54" height="54" rx="27" fill="#7AB0DF"/>
<path d="M34.0831 36.9168C34.8655 36.9168 35.4998 36.2825 35.4998 35.5001C35.4998 34.7177 34.8655 34.0835 34.0831 34.0835C33.3008 34.0835 32.6665 34.7177 32.6665 35.5001C32.6665 36.2825 33.3008 36.9168 34.0831 36.9168Z" fill="#7AB0DF"/>
<path d="M19.9166 36.9168C20.699 36.9168 21.3333 36.2825 21.3333 35.5001C21.3333 34.7177 20.699 34.0835 19.9166 34.0835C19.1343 34.0835 18.5 34.7177 18.5 35.5001C18.5 36.2825 19.1343 36.9168 19.9166 36.9168Z" fill="#7AB0DF"/>
<path d="M39.573 37.417L38.4893 19.0004C38.3788 17.1318 36.8262 15.667 34.9533 15.667H19.047C17.1742 15.667 15.6215 17.1318 15.511 19.0004L14.4273 37.417C14.3692 38.4016 14.7106 39.338 15.3864 40.0549C16.0635 40.7717 16.9773 41.167 17.9633 41.167H36.0371C37.0231 41.167 37.9369 40.7717 38.614 40.0549C39.2898 39.338 39.6312 38.4016 39.573 37.417ZM18.265 20.5077C18.3273 19.3829 19.2595 18.5003 20.3872 18.5003H33.6132C34.7408 18.5003 35.673 19.3829 35.7353 20.5077L36.207 29.087C36.2085 30.974 30.4398 31.2503 27.0002 31.2503C23.5605 31.2503 17.7918 30.974 17.7918 29.1253L18.265 20.5077ZM29.8335 34.7919C29.8335 35.1829 29.5162 35.5003 29.1252 35.5003H24.8752C24.4842 35.5003 24.1668 35.1829 24.1668 34.7919C24.1668 34.4009 24.4842 34.0836 24.8752 34.0836H29.1252C29.5162 34.0836 29.8335 34.4009 29.8335 34.7919ZM19.9168 38.3336C18.3542 38.3336 17.0834 37.0629 17.0834 35.5003C17.0834 33.9377 18.3542 32.6669 19.9168 32.6669C21.4794 32.6669 22.7502 33.9377 22.7502 35.5003C22.7502 37.0629 21.4794 38.3336 19.9168 38.3336ZM29.8335 38.3336H24.1669C23.7759 38.3336 23.4585 38.0163 23.4585 37.6253C23.4585 37.2343 23.7759 36.9169 24.1669 36.9169H29.8335C30.2245 36.9169 30.5419 37.2343 30.5419 37.6253C30.5418 38.0163 30.2245 38.3336 29.8335 38.3336ZM34.0835 38.3336C32.5209 38.3336 31.2502 37.0629 31.2502 35.5003C31.2502 33.9377 32.5209 32.6669 34.0835 32.6669C35.6461 32.6669 36.9169 33.9377 36.9169 35.5003C36.9168 37.0629 35.646 38.3336 34.0835 38.3336Z" fill="#7AB0DF"/>
<path d="M35.3581 11.7C35.1456 11.4166 33.7417 10 26.9998 10C20.2579 10 18.8539 11.4166 18.6414 11.7C18.4063 12.0131 18.453 12.4778 18.7661 12.7129C18.8992 12.812 19.0537 12.8616 19.2038 12.8616C19.4078 12.8616 19.6062 12.7695 19.7422 12.5896C19.7535 12.5784 20.9818 11.4166 26.9998 11.4166C32.9455 11.4166 34.2163 12.55 34.2248 12.55C34.4585 12.8631 34.9034 12.9254 35.2164 12.6916C35.5295 12.4565 35.5933 12.0131 35.3581 11.7Z" fill="#7AB0DF"/>
<path d="M29.4039 10.765C29.0469 10.6107 28.6276 10.7778 28.4746 11.1377L26.9998 14.5759L25.5265 11.139C25.3721 10.7778 24.9513 10.6107 24.5971 10.7664C24.2373 10.9208 24.0701 11.3373 24.2245 11.6958L26.3495 16.6542C26.46 16.9148 26.7164 17.0834 26.9998 17.0834C27.2831 17.0834 27.5395 16.9148 27.6514 16.6528L29.7764 11.6944C29.9309 11.3359 29.7637 10.9194 29.4039 10.765Z" fill="#7AB0DF"/>
<path d="M20.6252 39.75C20.2342 39.75 19.9169 40.0674 19.9169 40.4584H18.5002C18.5002 40.0674 18.1829 39.75 17.7919 39.75C17.4009 39.75 17.0835 40.0674 17.0835 40.4584V41.875C17.0835 43.0466 18.0369 44 19.2085 44C20.3801 44 21.3335 43.0466 21.3335 41.875V40.4584C21.3336 40.0674 21.0162 39.75 20.6252 39.75Z" fill="#7AB0DF"/>
<path d="M36.2082 39.75C35.8172 39.75 35.4999 40.0674 35.4999 40.4584H34.0832C34.0832 40.0674 33.7659 39.75 33.3749 39.75C32.9839 39.75 32.6665 40.0674 32.6665 40.4584V41.875C32.6665 43.0466 33.6199 44 34.7915 44C35.9631 44 36.9165 43.0466 36.9165 41.875V40.4584C36.9165 40.0674 36.5992 39.75 36.2082 39.75Z" fill="#7AB0DF"/>
<path d="M38.3334 19.9165C37.9424 19.9165 37.625 20.2339 37.625 20.6249C37.625 21.0159 37.9424 21.3332 38.3334 21.3332V25.5832C37.9424 25.5832 37.625 25.9006 37.625 26.2916C37.625 26.6826 37.9424 26.9999 38.3334 26.9999H39.0417C40.2133 26.9999 41.1667 26.0465 41.1667 24.8749V22.7499C41.1666 21.1873 39.8959 19.9165 38.3334 19.9165Z" fill="#7AB0DF"/>
<path d="M15.6669 25.5832V21.3332C16.0579 21.3332 16.3752 21.0159 16.3752 20.6249C16.3752 20.2339 16.0579 19.9165 15.6669 19.9165C14.1042 19.9165 12.8335 21.1873 12.8335 22.7499V24.8749C12.8335 26.0465 13.7869 26.9999 14.9585 26.9999H15.6669C16.0579 26.9999 16.3752 26.6825 16.3752 26.2915C16.3752 25.9005 16.0579 25.5832 15.6669 25.5832Z" fill="#7AB0DF"/>
</svg>
