<svg width="80" height="80" viewBox="0 0 80 80" fill="none" xmlns="http://www.w3.org/2000/svg">
<g clip-path="url(#clip0)">
<path d="M53.3334 42.1547V41.1264L58.7 34.4164C59.5405 33.3643 59.9988 32.0579 60 30.7114C59.9991 29.3983 58.9348 28.334 57.6217 28.333H51.775C50.8721 28.33 50.0561 28.8705 49.7067 29.703C48.576 32.8129 47.0883 35.7811 45.2733 38.548C44.7146 38.9864 43.9449 39.0392 43.3317 38.6814V30.1564C43.3262 29.1523 42.5141 28.3394 41.51 28.333H34.1666C33.7064 28.3322 33.3327 28.7047 33.3318 29.1649C33.3314 29.3868 33.4195 29.5997 33.5766 29.7564L34.0333 30.213C34.6535 30.8296 35.0016 31.6685 34.9999 32.543V38.8764C34.9218 38.9561 34.8212 39.0102 34.7116 39.0314C34.4024 38.9836 34.1216 38.8234 33.9232 38.5814C31.7784 35.47 29.8794 32.1961 28.2432 28.7897C28.1013 28.5096 27.8139 28.3331 27.4998 28.3331H22.1666C20.9701 28.3331 20 29.3031 20 30.4997V30.9247C19.9986 32.6826 20.4887 34.4058 21.415 35.8997C25.885 43.0914 32.015 51.6664 35.8334 51.6664H41.285C42.4155 51.6646 43.3315 50.7486 43.3334 49.618V48.1914C43.333 47.3501 44.0147 46.6677 44.856 46.6674C45.2609 46.6672 45.6491 46.8282 45.935 47.1147L49.395 50.5747C50.0942 51.2761 51.0446 51.6691 52.035 51.6664H57.9817C59.0945 51.6647 59.9953 50.7613 59.9937 49.6484C59.9929 49.1158 59.7813 48.605 59.405 48.228L53.3334 42.1547Z" fill="white"/>
</g>
<circle opacity="0.5" cx="40" cy="40" r="39" stroke="white" stroke-width="2"/>
<defs>
<clipPath id="clip0">
<rect width="40" height="40" fill="white" transform="translate(20 20)"/>
</clipPath>
</defs>
</svg>
