<svg width="1012" height="909" viewBox="0 0 1012 909" fill="none" xmlns="http://www.w3.org/2000/svg">
<path opacity="0.05" d="M419.725 386.133C468.569 332.873 440.077 106.519 419.725 0H1012V909H140.3C19.2153 909 -15.8929 841.719 6.21158 733.561C33.8422 598.363 358.67 452.708 419.725 386.133Z" fill="#147FB0"/>
<path opacity="0.3" fill-rule="evenodd" clip-rule="evenodd" d="M487.032 652.665C510.791 661.851 513.774 647.968 513.774 647.968C513.893 646.456 513.893 644.938 513.774 643.426C513.311 640.381 512.54 637.336 512.18 634.291C512.18 632.794 511.923 630.368 512.745 629.852C515.199 628.184 517.208 625.938 518.598 623.311C519.987 620.684 520.714 617.756 520.717 614.782C521.676 609.48 524.551 604.721 528.79 601.414C537.361 594.251 546.305 587.549 555.583 581.337C562.115 576.176 568.594 571.015 575.177 565.854C577.902 563.789 580.731 561.777 583.611 559.97C584.766 559.416 585.797 558.634 586.644 557.671C587.491 556.708 588.135 555.583 588.538 554.364C588.942 553.144 589.096 551.856 588.991 550.576C588.887 549.296 588.526 548.049 587.93 546.912C587.191 544.925 586.243 543.022 585.102 541.235C580.727 533.109 578.364 524.046 578.211 514.81C578.211 513.675 578.211 512.488 577.902 511.352C577.479 508.639 577.898 505.86 579.104 503.395C580.309 500.929 582.242 498.896 584.639 497.572C598.101 488.757 609.334 476.918 617.449 462.992C621.891 454.423 624.401 444.979 624.803 435.328C625.214 426.761 626.397 418.296 627.169 409.522C627.185 407.246 627.065 404.971 626.809 402.71L628.814 404.258C631.437 406.322 633.957 408.593 636.58 410.451C639.261 412.385 641.304 415.082 642.442 418.193C644.385 423.531 646.741 428.708 649.488 433.677C652.678 438.852 653.851 445.028 652.779 451.018C651.136 461.33 651.626 471.871 654.219 481.985C655.187 486.485 655.099 491.15 653.962 495.611C651.138 505.342 651.98 515.777 656.327 524.926C657.201 526.629 656.327 529.106 656.79 531.223C656.836 533.227 657.31 535.198 658.179 537.003C660.956 540.977 664.658 544.383 667.075 548.564C669.777 553.003 671.756 557.847 672.938 562.912C674.012 567.554 676.233 571.85 679.397 575.404C682.56 578.958 686.564 581.655 691.04 583.247C693.895 584.465 696.88 585.348 699.937 585.879C701.57 585.926 703.201 585.717 704.771 585.26C702.501 580.152 698.826 575.801 694.177 572.718C698.342 573.492 700.605 577.467 704.154 576.692C702.714 572.512 701.274 568.589 699.988 564.615C698.702 560.641 697.622 556.357 696.542 552.59C700.141 556.418 702.739 561.082 704.102 566.164C704.574 565.233 704.92 564.244 705.131 563.222C705.688 554.554 702.95 545.996 697.468 539.274C695.126 536.367 693.043 533.258 691.246 529.984C690.448 528.219 689.861 526.365 689.497 524.461L690.371 523.636L700.399 529.313C698.342 522.707 696.44 516.72 694.588 510.681L695.514 509.804L704.102 512.9C703.331 508.41 702.662 504.643 701.839 500.204L706.982 501.649L707.702 501.133C706.793 499.574 705.761 498.089 704.616 496.694C703.662 495.807 703.078 494.589 702.982 493.286C702.887 491.984 703.287 490.693 704.102 489.675C707.292 484.65 708.587 478.646 707.753 472.747C706.336 455.488 701.714 438.649 694.125 423.096C689.651 414.761 683.4 407.518 675.818 401.884C665.173 393.832 655.247 385.11 644.396 377.214C637.012 371.728 627.791 369.34 618.683 370.556C617.659 370.759 616.646 371.017 615.649 371.33C615.649 371.691 615.649 372.001 615.649 372.31C616.704 372.757 617.786 373.137 618.889 373.446C624.597 374.685 630.357 375.562 635.963 377.007C643.615 379.161 650.545 383.352 656.019 389.136C662.739 394.882 668.593 401.575 673.401 409.006C677.721 417.058 682.297 425.006 686.72 433.006C687.252 434.347 687.682 435.728 688.006 437.135C679.469 426.09 675.509 425.161 671.241 430.425C669.184 425.264 667.487 420.103 665.173 415.303C663.292 411.981 661.214 408.775 658.95 405.703C657.047 402.267 654.952 398.941 652.676 395.742C649.808 392.332 646.622 389.204 643.162 386.4C642.697 386.012 642.155 385.727 641.572 385.564C640.988 385.402 640.377 385.366 639.779 385.459C639.181 385.551 638.609 385.771 638.102 386.102C637.595 386.434 637.163 386.87 636.837 387.381C630.923 382.22 626.552 373.807 615.803 375.407C607.836 364.454 596.332 356.611 583.251 353.214C576.102 350.685 568.903 347.176 561.24 348.208L560.726 349.24C561.588 349.864 562.52 350.384 563.503 350.788C572.453 352.723 581.293 355.135 589.988 358.014C597.727 361.026 604.664 365.801 610.251 371.963C615.838 378.125 619.921 385.506 622.18 393.523C622.563 394.449 622.597 395.484 622.275 396.434C621.954 397.384 621.298 398.184 620.432 398.684C618.16 400.507 616.581 403.058 615.958 405.91C612.981 418.855 605.574 430.343 595.027 438.373C588.548 443.896 581.502 448.696 574.457 453.857C574.236 454.054 573.972 454.196 573.685 454.27C572.451 454.27 570.291 454.27 570.137 454.837C569.603 456.856 569.378 458.944 569.469 461.031C569.469 461.444 570.754 462.166 571.474 462.166C572.921 462.461 574.423 462.279 575.758 461.647C577.093 461.014 578.188 459.965 578.879 458.657C578.879 458.295 579.394 458.089 580.217 457.211L579.342 460.876C586.859 458.604 593.815 454.771 599.758 449.625C605.885 444.825 610.947 438.795 614.621 431.922L615.701 432.541C614.67 435.406 613.415 438.185 611.946 440.851C608.637 446.601 604.797 452.026 600.478 457.057C597.149 460.045 593.195 462.25 588.908 463.508C587.722 463.839 586.654 464.499 585.826 465.412C584.999 466.325 584.444 467.454 584.228 468.669C583.868 469.96 583.354 471.198 582.942 472.334C582.428 470.992 582.274 469.185 581.348 468.566C580.422 467.947 578.828 468.566 577.491 468.566C566.274 470.725 554.867 471.728 543.447 471.56C530.869 470.586 518.407 468.461 506.214 465.211C500.611 464.198 494.834 464.862 489.604 467.121C489.604 463.663 489.295 460.308 489.089 456.799C488.369 446.476 493.461 437.754 499.375 429.651C501.996 426.791 505.402 424.775 509.164 423.856C512.925 422.938 516.874 423.158 520.511 424.49C527.016 426.58 534.01 426.58 540.516 424.49C544.946 423.188 549.277 421.567 553.475 419.638C555.789 418.709 557.332 414.477 557.075 410.916C556.081 399.08 555.223 387.261 554.503 375.459C554.385 372.848 554.575 370.232 555.069 367.665C555.417 366.625 556.106 365.733 557.023 365.136C560.726 362.504 564.532 359.975 568.234 357.291C568.851 356.827 569.109 355.846 569.52 355.072C568.697 354.659 567.926 353.937 567.103 353.937C563.76 353.937 560.417 353.937 557.075 353.937C554.573 353.971 552.085 353.57 549.721 352.75L558.618 348.311C558.593 347.95 558.593 347.588 558.618 347.227C557.608 347.151 556.593 347.151 555.583 347.227C550.801 347.227 546.018 347.64 541.236 347.588C539.717 347.625 538.223 347.201 536.948 346.372C535.673 345.544 534.676 344.349 534.087 342.943C532.703 340.326 531.139 337.808 529.408 335.408C531.156 333.757 531.105 333.395 528.276 331.795C526.682 330.918 524.933 330.195 523.134 329.37C525.705 324.208 519.379 321.318 519.945 316.363L524.213 322.97C525.076 324.514 526.092 325.967 527.248 327.305C529.099 328.905 531.156 331.021 533.419 327.615C533.779 327.099 534.91 327.099 536.607 326.583L532.03 319.254V318.892L538.664 324.466L539.641 324.002C539.555 321.732 539.013 319.502 538.047 317.447C532.493 309.757 526.579 302.377 520.819 294.893C519.688 293.396 518.865 291.641 517.888 290.042C517.584 290.47 517.309 290.918 517.065 291.383C516.557 288.574 515.764 285.825 514.7 283.177C511.644 276.413 509.334 269.335 507.809 262.068C507.449 260.881 506.986 259.797 506.42 258.249C504.62 260.158 503.283 262.016 501.277 258.765C500.866 258.042 497.318 258.765 495.723 259.333C493.204 260.726 491.918 259.333 490.581 257.733C489.244 256.133 490.992 254.894 492.226 254.068C495.003 252.055 497.883 250.249 500.763 248.339L505.032 257.371H506.06C506.16 256.462 506.16 255.545 506.06 254.636C505.187 245.291 500.679 236.667 493.512 230.637C487.804 225.94 483.227 219.747 477.313 215.463C471.231 211.036 466.681 204.809 464.302 197.657C463.868 196.751 463.352 195.887 462.759 195.076L459.571 195.85C460.034 194.147 460.445 192.857 460.805 191.567L459.777 191.05L456.845 194.612C460.856 197.708 459.417 201.889 459.005 205.863C458.697 209.063 458.028 212.211 457.514 215.36L443.783 197.863L456.537 204.469C458.799 198.895 457.462 195.644 451.908 194.147C442.401 191.856 433.122 188.694 424.19 184.702C422.734 184.137 421.214 183.755 419.664 183.567C417.041 183.051 414.11 181.864 413.287 186.096C413.287 186.612 412.516 187.025 412.259 187.386L405.831 185.683L405.162 186.715L410.973 194.044C407.926 192.427 404.72 191.13 401.408 190.173C399.484 189.994 397.551 190.388 395.85 191.306C394.149 192.224 392.755 193.625 391.843 195.334C400.071 195.105 408.123 197.751 414.624 202.818C414.984 201.012 415.139 200.134 415.396 198.999C419.221 204.287 421.693 210.436 422.595 216.908C422.955 219.54 424.344 222.069 424.652 224.753C425.345 229.502 425.603 234.305 425.424 239.101C424.823 244.68 423.861 250.214 422.544 255.668C422.235 257.113 421.618 258.971 419.047 257.991C418.327 257.681 416.99 258.713 415.961 259.229C413.287 260.571 410.819 260.881 408.813 258.146C406.19 254.171 403.671 249.991 401.614 245.81C401.301 244.842 401.128 243.834 401.099 242.817C401.385 242.671 401.646 242.479 401.871 242.249C404.339 244.727 407.013 246.997 409.07 249.63C411.127 252.262 413.133 255.204 415.344 258.3C417.093 253.604 415.344 248.649 409.379 240.804L417.916 247.049C421.618 240.598 410.562 231.566 396.985 230.017C396.42 226.921 395.854 223.772 395.082 219.695C397.843 223.874 401.756 227.156 406.345 229.14C406 227.55 405.465 226.007 404.751 224.546C401.511 220.005 397.757 215.772 394.774 211.024C392.69 207.539 391.082 203.79 389.991 199.876C389.636 197.533 389.636 195.149 389.991 192.805C394.003 190.121 398.219 187.334 402.385 184.393C404.669 182.857 406.819 181.13 408.813 179.231C410.385 177.886 411.5 176.082 412.002 174.07C412.002 171.696 413.596 171.438 415.139 170.974C416.347 170.626 417.588 170.401 418.841 170.303C420.239 170.318 421.601 169.857 422.703 168.994C423.806 168.131 424.584 166.919 424.91 165.554C418.224 165.245 412.31 168.445 405.882 169.27C409.173 162.871 426.452 160.135 432.366 164.78C431.338 162.612 430.207 160.496 429.384 158.226C428.561 155.955 428.047 153.684 427.224 150.793C433.652 145.323 433.138 136.549 434.166 128.291C434.681 124.781 435.041 121.272 435.349 117.968C435.478 115.992 435.478 114.009 435.349 112.033C435.324 111.788 435.235 111.553 435.091 111.354C434.946 111.154 434.751 110.997 434.526 110.898C424.16 106.692 413.102 104.469 401.922 104.343C401.459 104.343 401.048 104.704 400.431 105.737L406.859 107.182V107.698C404.359 107.522 401.87 107.212 399.402 106.769C396.779 106.115 394.202 105.288 391.688 104.291C390.648 103.983 389.551 103.918 388.482 104.102C387.413 104.286 386.4 104.713 385.521 105.351C384.642 105.989 383.92 106.821 383.411 107.782C382.902 108.744 382.62 109.81 382.586 110.898C381.403 118.846 380.22 126.794 378.935 134.691C378.369 137.787 378.369 140.471 381.403 142.381C381.917 142.742 381.917 143.981 382.123 144.806C382.48 146.319 382.738 147.854 382.894 149.4C382.913 150.295 382.774 151.186 382.483 152.032C381.763 153.993 380.786 155.851 380.22 157.864C380.22 158.638 380.529 159.619 380.683 160.496C380.837 161.374 381.249 161.787 381.146 162.354C380.477 165.296 381.455 166.845 384.797 166.793C385.26 169.787 385.774 172.78 386.289 175.98L397.397 175.361C398.411 177.305 399.122 179.393 399.505 181.554C399.505 182.689 397.808 184.238 396.522 185.115C393.678 186.981 390.743 188.704 387.729 190.276C386.083 191.205 385.826 192.186 386.751 193.838C387.178 194.792 387.355 195.84 387.266 196.883C386.803 200.805 386.289 204.728 385.723 208.598C385.609 209.103 385.36 209.567 385.003 209.94C382.247 213.132 380.861 217.288 381.146 221.501C381.146 225.888 380.683 230.327 380.632 234.714C380.632 237.759 380.992 240.804 381.146 244.365C376.878 247.307 370.861 246.533 365.307 247.049C364.278 247.049 363.044 244.52 361.501 242.662L373.895 241.888L359.29 228.004L371.015 222.843C367.415 221.346 364.587 220.211 361.861 218.972C360.548 218.505 359.444 217.583 358.747 216.372C358.049 215.162 357.804 213.741 358.056 212.366C358.694 209.688 358.394 206.87 357.204 204.388C356.014 201.906 354.008 199.911 351.524 198.741C350.959 198.483 350.907 197.244 350.65 196.47C349.94 193.686 348.976 190.973 347.77 188.367C346.588 186.147 345.045 186.457 343.965 188.831C343.398 190.178 342.967 191.579 342.679 193.012C342.449 194.467 341.734 195.801 340.65 196.795C339.567 197.789 338.179 198.384 336.714 198.483C335.156 198.714 333.564 198.481 332.137 197.811C330.711 197.141 329.512 196.064 328.691 194.715C327.766 193.063 327.2 191.257 326.326 189.554C325.218 187.823 324.353 185.947 323.754 183.98C325.362 184.622 326.896 185.435 328.331 186.405C329.239 187.399 329.954 188.555 330.44 189.812C331.569 191.701 333.354 193.104 335.452 193.752C337.55 194.4 339.813 194.247 341.805 193.321C341.805 193.063 341.805 192.599 341.394 192.599C337.382 192.186 336.251 189.296 335.737 185.941C334.142 177.735 330.594 175.206 322.16 175.98C320.826 176.002 319.535 175.502 318.56 174.586C316.4 172.677 314.446 170.509 312.595 168.599C313.092 166.489 313.47 164.353 313.726 162.2C313.726 159.155 313.109 158.793 310.075 159.671C308.789 160.032 307.504 160.496 306.167 160.754C304.708 160.825 303.254 160.549 301.922 159.948C300.59 159.347 299.419 158.439 298.504 157.297C295.952 154.772 292.558 153.285 288.978 153.123C285.398 152.961 281.885 154.135 279.117 156.419C277.03 157.677 274.846 158.764 272.585 159.671C271.968 157.348 271.557 155.8 270.991 153.839C269.963 154.561 269.243 154.768 268.986 155.232C267.031 158.638 263.843 158.174 260.706 158.174C257.569 158.174 254.638 158.484 251.295 158.638C253.301 165.348 256.798 171.335 256.438 178.199L255.409 178.819C254.167 177.459 253.048 175.991 252.066 174.432C249.192 168.456 247.832 161.861 248.107 155.232C248.181 153.237 247.903 151.245 247.284 149.348C244.931 154.381 243.203 159.685 242.141 165.141C238.078 165.141 233.604 164.058 231.444 168.445C230.724 169.993 231.959 172.522 232.37 174.844C231.65 174.844 230.21 175.412 228.77 175.928C226.279 176.615 224.101 178.147 222.61 180.265C221.119 182.383 220.406 184.954 220.594 187.541C220.148 189.569 219.44 191.53 218.485 193.373C220.182 194.302 219.308 195.902 218.485 197.657C211.877 210.545 207.676 224.539 206.091 238.946C205.747 241.752 204.966 244.486 203.777 247.049C202.286 250.559 202.286 254.791 199.097 257.371C198.912 257.629 198.78 257.922 198.709 258.233C198.638 258.543 198.63 258.864 198.686 259.178C199.766 264.7 197.297 269.758 196.578 275.074C195.858 280.39 195.189 284.106 194.418 288.596C194.058 290.764 196.012 292.932 194.418 295.099C194.418 295.409 194.88 296.957 195.498 297.577C197.943 300.144 199.588 303.374 200.229 306.867C202.337 313.68 206.914 315.022 212.571 310.738C213.548 309.964 215.142 310.067 216.428 309.654C217.222 309.477 217.974 309.143 218.639 308.673C219.382 307.782 220.053 306.833 220.645 305.835L221.416 306.093C221.715 308.411 222.179 310.705 222.805 312.957C223.319 314.351 224.605 316.363 225.685 316.467C226.765 316.57 228.616 315.125 229.542 313.938C230.886 312.08 232.04 310.092 232.987 308.002C233.854 306.663 235.102 305.617 236.57 305C238.038 304.383 239.657 304.225 241.215 304.544C243.941 305.267 246.821 305.628 250.061 306.196C249.598 308.209 248.981 310.789 248.569 313.37C246.152 327.15 243.787 340.982 241.37 354.659C241.271 356.462 240.755 358.218 239.862 359.785C238.97 361.353 237.725 362.691 236.227 363.691C233.81 365.098 231.906 367.246 230.796 369.82C229.685 372.393 229.426 375.256 230.056 377.988C230.416 380.465 230.673 383.149 231.033 385.575H232.01L236.484 377.626L237.41 378.039C236.765 379.511 236.232 381.029 235.816 382.581C235.559 384.491 234.324 386.968 236.998 388.052C240.444 389.445 242.141 388.052 241.575 384.181C241.164 381.342 240.855 378.401 240.701 375.51C240.799 374.654 241.179 373.855 241.781 373.239C242.09 372.827 242.707 372.723 243.17 372.517C250.112 369.214 250.935 369.678 251.244 377.678L260.295 377.162C259.06 374.426 258.083 372.001 256.952 369.936C255.82 367.872 256.026 366.788 257.775 366.375C263.637 364.982 269.603 363.898 275.722 362.659C275.414 365.859 275.054 368.285 274.9 370.762C274.9 372.414 275.465 373.033 277.368 372.827C284.619 371.949 285.648 369.781 281.534 363.588C281.174 363.072 280.814 362.659 279.939 361.627C282.376 360.537 284.906 359.674 287.499 359.046C291.132 358.564 294.789 358.288 298.453 358.22C300.767 358.22 301.744 358.788 300.51 361.369C299.714 363.291 299.078 365.277 298.607 367.304C298.144 369.162 299.07 369.885 300.818 369.472C303.39 368.904 305.961 368.078 309.047 367.252C308.33 372.694 306.281 377.872 303.081 382.323C300.767 385.058 298.658 388 296.087 390.529C294.802 391.724 293.154 392.451 291.407 392.594C283.693 393.058 275.979 393.523 268.214 393.42C261.271 392.761 254.267 393.552 247.644 395.742C238.181 399.665 234.53 407.664 233.399 417.264C233.429 418.154 233.157 419.027 232.627 419.741C232.6 417.393 232.755 415.046 233.09 412.722C234.427 407.251 236.33 401.935 237.513 396.465C237.473 394.47 237.09 392.497 236.381 390.633C233.142 391.923 233.347 394.968 232.782 397.239C231.804 401.11 231.547 405.084 230.93 409.006C230.519 411.587 229.902 414.167 229.285 416.645C228.667 419.122 228.102 420.361 227.279 422.838C225.17 423.354 222.548 424.232 219.822 424.799C211.643 426.852 203.799 430.068 196.526 434.348C191.383 437.135 185.675 439.509 180.173 442.089C176.228 443.725 172.902 446.576 170.675 450.23C168.448 453.885 167.434 458.154 167.779 462.424C167.779 467.018 168.139 471.611 168.293 476.153C169.013 492.514 169.63 508.875 170.299 525.184C170.299 525.958 170.299 526.887 170.299 527.352C174.876 533.906 170.813 541.958 174.156 548.719L178.064 556.461L181.201 562.138C184.263 567.4 188.507 571.871 193.595 575.196C195.899 576.55 197.668 578.66 198.605 581.169C199.541 583.679 199.588 586.436 198.737 588.976C197.092 594.86 198.737 598.266 204.754 601.105C203.351 601.733 201.908 602.267 200.434 602.705C196.269 603.53 192.052 604.201 187.835 605.027C186.51 605.143 185.268 605.724 184.328 606.668C183.387 607.612 182.808 608.858 182.693 610.188C182.482 611.34 182.667 612.529 183.219 613.56C183.77 614.592 184.654 615.405 185.727 615.866C187.218 616.743 187.218 617.517 186.652 619.169C185.418 622.781 184.698 626.601 183.721 630.472L167.316 631.349L172.973 623.143L172.047 622.42C167.709 624.471 164.114 627.826 161.762 632.02C158.779 637.181 156.208 643.168 153.38 648.69C152.526 649.833 151.737 651.022 151.014 652.252C150.971 652.665 151.028 653.083 151.18 653.469C151.332 653.855 151.575 654.199 151.888 654.471C154.46 654.832 157.031 654.781 159.756 655.142C160.219 655.142 161.094 656.535 160.888 657L189.635 653.387C191.308 651.681 192.455 649.528 192.938 647.184C193.421 644.84 193.221 642.407 192.361 640.175C191.156 635.707 191.482 630.963 193.286 626.704C195.292 621.543 197.092 621.13 200.692 624.898L201.514 625.827C201.925 626.379 202.468 626.819 203.091 627.106C203.715 627.394 204.401 627.521 205.086 627.475C205.771 627.429 206.434 627.211 207.013 626.842C207.593 626.473 208.072 625.964 208.406 625.362C209.917 623.36 211.066 621.106 211.8 618.704C213.548 611.582 214.525 604.253 216.531 597.182C219.171 587.307 222.312 577.575 225.942 568.022C228.714 562.335 231.822 556.82 235.25 551.506C237.269 547.528 240.326 544.174 244.095 541.803C246.908 540.07 249.264 537.684 250.965 534.846C252.666 532.007 253.661 528.799 253.866 525.494C254.071 524.275 254.452 523.092 254.998 521.984C258.752 514.346 262.609 506.501 266.26 499.017C268.523 494.217 270.425 489.159 272.071 485.237L286.059 487.559C286.199 489.83 287.178 491.966 288.804 493.551C290.43 495.135 292.587 496.054 294.853 496.127C299.834 496.513 304.837 496.513 309.818 496.127C310.289 495.931 310.705 495.622 311.029 495.225C311.352 494.829 311.572 494.358 311.669 493.856C311.258 491.327 310.435 488.695 309.766 486.217C310.907 485.906 311.986 485.4 312.955 484.72C315.938 481.985 319.075 482.966 322.417 483.791C329.154 485.546 335.891 487.301 342.731 488.643C356.719 491.482 370.706 494.32 384.797 496.694C394.652 498.471 404.619 499.557 414.624 499.946C424.949 500.194 435.275 499.521 445.48 497.933C454.617 496.391 463.6 494.042 472.325 490.914C477.068 488.444 482.478 487.575 487.752 488.436C488.61 488.613 489.387 489.066 489.964 489.727C493.615 494.888 496.958 500.772 500.712 506.139C506.416 515.283 513.839 523.224 522.568 529.519C524.612 530.586 526.375 532.125 527.71 534.01C529.138 536.542 529.982 539.364 530.179 542.267C530.179 543.403 527.762 544.796 526.219 545.829C516.654 552.435 507.037 559.041 497.318 565.389C488.596 571.963 479.159 577.521 469.188 581.957C466.204 583.376 463.778 585.756 462.296 588.718C460.569 592.381 459.374 596.275 458.748 600.279C457.538 607.9 454.978 615.241 451.188 621.956C450.611 623.493 450.281 625.114 450.211 626.756C449.697 629.646 449.44 632.639 448.668 635.478C447.736 638.084 446.618 640.619 445.326 643.065H443.012C458.088 643.989 472.934 647.227 487.032 652.665ZM443.063 286.48C447.949 288.39 452.783 290.661 457.668 286.48C458.808 287.98 459.855 289.549 460.805 291.177C461.747 293.22 463.131 295.026 464.857 296.464C466.583 297.901 468.607 298.934 470.782 299.486C472.89 300.003 474.382 299.848 475.05 297.37C476.09 294.524 476.865 291.587 477.364 288.596C477.393 285.043 477.048 281.497 476.336 278.016C476.336 277.552 475.564 277.139 475.05 276.881C472.486 276.253 470.261 274.659 468.834 272.431C467.408 270.202 466.89 267.508 467.388 264.907C467.388 264.391 467.388 263.874 467.388 263.358C467.388 261.81 467.388 260.313 467.388 257.887L465.176 252.417L465.742 252.21C466.822 253.81 468.468 255.255 468.776 257.01C469.086 259.737 470.344 262.267 472.328 264.155C474.313 266.043 476.897 267.168 479.627 267.332C480.536 267.416 481.411 267.724 482.173 268.228C482.936 268.732 483.562 269.417 483.998 270.223C487.084 274.919 490.735 279.203 493.975 283.797C495.452 286.035 496.791 288.362 497.986 290.764C498.691 292.293 499.309 293.861 499.838 295.461C495.466 297.061 497.009 301.086 496.752 304.544C489.707 299.383 484.307 300.88 480.244 308.518C479.627 309.706 478.907 310.893 478.239 312.08C477.779 313.262 476.872 314.213 475.715 314.725C474.559 315.238 473.247 315.27 472.067 314.815C468.603 313.523 465.319 311.788 462.296 309.654C457.668 306.041 452.423 302.532 452.68 295.306C452.68 294.17 450.417 291.848 449.388 291.951C444.863 292.364 444.246 289.267 443.166 286.222C441.777 285.5 439.566 285.138 439.155 284.003C437.686 280.173 436.5 276.24 435.606 272.236C434.855 267.59 435.575 262.824 437.663 258.61C441.212 266.61 444.297 273.732 447.589 281.164C442.446 280.803 440.749 277.087 438.023 274.248C437.653 275.194 437.653 276.245 438.023 277.19C439.669 280.442 441.417 283.435 443.063 286.48ZM317.223 351.666C319.277 351.468 321.263 350.821 323.041 349.768C324.818 348.716 326.343 347.285 327.508 345.576C331.467 340.453 336.418 336.186 342.062 333.034C343.016 332.322 343.82 331.427 344.428 330.402L343.913 329.679L335.942 330.144C335.966 329.886 335.966 329.627 335.942 329.37C337.331 328.905 338.719 328.389 340.108 328.028C342.679 327.357 345.816 327.563 346.073 323.486C346.463 324.468 346.622 325.528 346.536 326.583C345.508 336.595 344.479 346.659 343.296 356.724C343.162 357.28 342.903 357.797 342.537 358.236C342.171 358.674 341.71 359.022 341.188 359.253C336.611 360.904 331.931 362.246 327.046 363.794C326.326 362.711 325.657 361.317 324.68 360.078C322.366 357.24 319.949 354.453 317.583 351.666C317.583 353.317 317.583 354.969 317.995 356.827C318.059 360.169 319.058 363.427 320.876 366.228C322.694 369.029 325.26 371.262 328.28 372.672L338.565 377.833C338.565 385.007 338.565 391.871 338.565 398.477C338.406 400.035 338.096 401.574 337.639 403.071C337.023 405.911 336.611 408.791 336.405 411.69C336.456 413.192 336.123 414.682 335.439 416.019C334.755 417.355 333.742 418.495 332.497 419.329C330.435 420.974 328.692 422.986 327.354 425.264C325.04 429.083 324.526 429.548 320.155 428.877C315.783 428.206 315.012 429.548 316.298 433.677C316.536 434.248 316.847 434.786 317.223 435.277C318.786 437.444 320.882 439.168 323.306 440.281C325.731 441.393 328.401 441.856 331.057 441.625C333.405 441.932 335.79 441.464 337.85 440.291C339.91 439.118 341.533 437.303 342.474 435.122C342.474 435.122 342.833 435.122 343.142 435.122C343.451 435.122 343.142 436.36 343.142 436.98C343.553 441.522 343.142 441.78 338.771 442.709C333.014 443.85 327.062 443.477 321.492 441.625C319.432 441.13 317.332 440.82 315.218 440.696C315.057 441.101 314.92 441.514 314.806 441.934L321.132 447.096C321.154 447.301 321.154 447.509 321.132 447.715L313.006 446.012C312.984 447.307 313.266 448.589 313.829 449.754C314.392 450.92 315.22 451.936 316.246 452.721C322.074 458.118 329.572 461.343 337.485 461.857C338.457 462.046 339.374 462.456 340.165 463.053C340.957 463.651 341.602 464.422 342.053 465.307C342.504 466.192 342.748 467.168 342.768 468.162C342.787 469.156 342.581 470.141 342.165 471.043C341.749 471.484 341.212 471.789 340.622 471.921L329.051 474.656L321.44 476.669V477.753C322.451 477.805 323.464 477.805 324.474 477.753C329.617 477.185 334.76 476.463 339.902 475.998C340.776 475.998 341.754 477.03 342.679 477.598C341.702 478.114 340.776 479.146 339.748 479.146C329.463 479.146 319.177 479.146 308.892 479.146C305.549 479.146 304.161 478.372 304.264 474.966C304.264 473.624 303.544 472.334 303.492 470.992C303.503 469.841 303.785 468.709 304.315 467.689C304.811 466.908 305.508 466.276 306.331 465.858C307.154 465.44 308.075 465.253 308.995 465.315C314.138 464.902 319.28 464.127 324.423 463.508C324.448 463.147 324.448 462.785 324.423 462.424C321.08 461.082 317.789 459.637 314.138 458.502C312.217 457.668 310.666 456.159 309.776 454.258C308.886 452.357 308.718 450.196 309.304 448.179C309.985 447.011 310.395 445.703 310.502 444.354C310.608 443.004 310.41 441.648 309.921 440.386C309.327 438.358 309.222 436.218 309.612 434.141C312.002 419.666 312.881 404.981 312.235 390.323C311.279 380.592 312.169 370.767 314.858 361.369C315.858 358.19 316.648 354.949 317.223 351.666ZM468.776 418.761C464.118 419.513 459.527 420.634 455.045 422.116C448.966 424.396 442.363 424.88 436.018 423.509C431.26 422.546 426.32 423.143 421.927 425.212C416.321 428.041 410.15 429.558 403.876 429.651C396.317 429.651 388.808 430.425 381.3 430.58C372.692 431.192 364.041 430.619 355.587 428.877C354.504 428.503 353.328 428.503 352.244 428.877C351.566 429.266 350.802 429.48 350.022 429.501C349.241 429.521 348.467 429.348 347.769 428.995C347.071 428.642 346.471 428.122 346.023 427.48C345.574 426.838 345.291 426.094 345.199 425.316C344.891 423.251 344.119 421.29 343.708 419.225C343.159 417.564 342.967 415.805 343.142 414.064C344.119 409.729 345.456 405.445 346.69 401.006C348.85 401.677 349.879 406.168 354.456 404.671C353.17 403.535 352.45 402.864 351.73 402.348C350.058 400.955 348.868 399.065 348.332 396.951C347.797 394.837 347.942 392.607 348.747 390.581C350.945 387.468 351.832 383.611 351.216 379.846L360.01 376.078C361.079 381.327 360.902 386.755 359.496 391.923C358.313 395.949 354.97 396.619 351.782 393.936L349.519 392.232C349.098 393.382 349.098 394.644 349.519 395.794C350.049 397.478 351.155 398.92 352.642 399.864C354.129 400.809 355.901 401.195 357.644 400.955C359.545 400.808 361.343 400.028 362.75 398.737C364.157 397.446 365.094 395.719 365.41 393.832C367.044 387.617 367.324 381.122 366.232 374.788C366.048 374.34 365.963 373.857 365.983 373.372C366.003 372.888 366.127 372.413 366.347 371.982C366.566 371.55 366.877 371.171 367.257 370.872C367.637 370.572 368.077 370.359 368.547 370.246C374.975 367.511 381.455 365.085 387.729 361.936C391.104 360.43 394.757 359.651 398.451 359.651C402.145 359.651 405.798 360.43 409.173 361.936C416.423 365.31 423.035 369.92 428.715 375.562C429.658 376.763 430.133 378.267 430.052 379.794C430.052 382.581 429.641 385.42 429.641 388.258C429.641 394.555 428.047 396.516 421.773 396.981C420.487 396.981 419.253 396.981 418.019 396.981C413.236 396.981 408.35 396.465 403.619 396.981C399.814 397.29 396.111 398.839 392.305 399.303C387.163 399.923 382.02 399.819 376.878 400.387C373.803 400.861 370.787 401.657 367.878 402.761C367.055 403.071 366.798 404.723 366.232 405.806C367.209 406.219 368.135 407.045 369.009 406.993C372.609 406.993 376.106 406.477 379.655 406.064C392.203 404.619 404.751 403.019 417.35 401.781C421.875 401.368 426.504 401.781 431.132 401.781C435.761 401.781 436.635 400.594 436.84 396.155C437.046 391.716 436.84 388 436.84 383.871C436.84 382.839 436.84 381.704 436.84 380.671L437.715 380.259C439.383 381.877 440.946 383.601 442.395 385.42C446.766 390.633 450.623 396.723 454.583 401.884C458.542 407.045 464.251 413.496 468.776 418.916V418.761ZM302.567 240.856C301.635 241.007 300.733 241.303 299.893 241.733C294.75 245.397 289.967 249.268 284.773 252.726C280.556 255.617 276.031 257.887 271.043 261.036L291.613 236.107L290.687 235.075C284.408 239.083 278.699 243.927 273.717 249.475C275.042 246.562 276.059 243.517 276.751 240.391C277.414 234.032 277.603 227.631 277.317 221.243C276.385 210.318 271.214 200.198 262.917 193.063C262.3 192.496 261.58 191.515 261.734 190.896C262.403 187.541 263.432 184.289 264.1 181.606C267.083 181.193 269.603 180.935 272.071 180.367C272.964 180.093 273.915 180.068 274.821 180.296C275.727 180.523 276.554 180.994 277.214 181.657C279.286 183.806 281.799 185.477 284.578 186.556C287.357 187.634 290.337 188.093 293.31 187.902C295.476 187.814 297.553 187.016 299.224 185.631C301.256 183.653 303.954 182.511 306.784 182.431C304.675 186.715 304.418 189.296 305.961 191.309C306.923 192.346 308.157 193.09 309.522 193.455C310.886 193.82 312.326 193.792 313.675 193.373C317.943 192.857 318.818 193.734 321.183 197.915C322.731 200.431 324.822 202.565 327.303 204.16C329.792 205.378 332.416 206.296 335.12 206.895C333.628 211.437 335.942 214.585 340.622 214.276C343.091 214.276 343.553 215.36 343.553 217.527C343.237 219.684 343.541 221.886 344.428 223.875C347.513 227.85 350.393 232.03 353.479 236.004C355.138 237.867 356.944 239.592 358.878 241.165C356.821 242.765 355.33 241.165 353.736 240.236C350.239 237.604 346.845 235.075 343.451 232.288C339.079 229.14 338.308 229.346 335.428 233.733C335.428 233.733 334.965 233.733 334.4 234.198C334.76 233.011 334.965 232.082 335.428 230.172C333.268 231.101 331.263 231.411 330.697 232.443C330.572 233.18 330.609 233.936 330.804 234.658C331 235.38 331.349 236.051 331.828 236.624C333.605 238.492 335.495 240.25 337.485 241.888C333.68 244.365 336.148 247.41 337.177 250.301C328.691 253.036 323.24 263.152 326.531 270.378C320.72 272.648 314.858 274.764 309.149 277.293C294.589 283.271 279.662 288.305 264.46 292.364C262.094 293.035 261.323 292.364 261.014 289.938C260.516 286.983 260.757 283.95 261.718 281.111C262.679 278.273 264.328 275.72 266.517 273.681C267.829 272.441 269.443 271.569 271.197 271.152C280.314 270.092 289.09 267.045 296.91 262.223C298.05 261.311 299.132 260.329 300.15 259.281C299.897 258.921 299.673 258.541 299.481 258.146C296.926 259.463 294.299 260.635 291.613 261.655C288.836 262.481 285.853 262.687 283.025 263.358C280.196 264.029 277.522 264.958 274.745 265.732C274.723 265.458 274.723 265.181 274.745 264.907C286.186 259.83 295.869 251.459 302.567 240.856ZM243.992 358.53L243.118 357.911L244.044 354.35C246.358 345.576 248.724 336.802 250.935 328.028C252.822 318.869 257.622 310.573 264.614 304.39C269.757 300.106 274.025 294.996 281.379 293.654C287.735 291.969 293.958 289.812 299.996 287.203C302.167 286.541 304.385 286.041 306.629 285.706C307.982 285.812 309.34 285.812 310.692 285.706C313.343 284.497 316.055 283.429 318.817 282.506C326.48 280.751 331.777 280.958 335.171 288.854C335.912 290.827 336.168 292.951 335.918 295.044C335.667 297.138 334.917 299.139 333.731 300.88C329.88 307.286 327.035 314.249 325.297 321.525C325.046 322.083 324.676 322.58 324.214 322.981C323.753 323.382 323.21 323.677 322.623 323.847C314.446 326.221 306.167 328.286 297.99 330.711C291.202 332.776 284.671 335.873 277.779 337.369C266.577 340.037 256.477 346.133 248.878 354.814C247.31 356.131 245.68 357.372 243.992 358.53ZM503.952 417.058C502.46 416.025 501.586 415.509 500.815 414.838C492.226 407.2 483.638 399.665 475.102 391.82C470.715 386.704 465.802 382.068 460.445 377.988C452.557 373.354 444.997 368.181 437.818 362.504C430.361 356.414 423.727 349.292 416.116 341.86C417.94 341.548 419.811 341.651 421.591 342.16C423.371 342.669 425.014 343.571 426.401 344.801C433.601 349.498 440.697 354.453 448.154 358.685C453.17 361.129 458.321 363.283 463.582 365.136C471.757 369.093 480.641 371.357 489.707 371.794C493.572 371.769 497.436 371.976 501.277 372.414C507.988 373.118 514.744 371.595 520.511 368.078C522.003 367.014 523.428 365.86 524.779 364.62C522.901 363.41 520.88 362.439 518.762 361.73C509.608 360.182 500.437 358.805 491.249 357.601C477.694 355.372 464.452 351.525 451.805 346.143C451.343 346.143 451.086 345.421 450.828 345.111C476.541 346.659 501.689 353.111 526.836 359.201C526.065 356.466 524.779 354.35 524.008 351.975C523.329 349.561 522.865 347.091 522.619 344.595C522.429 343.413 522.511 342.203 522.859 341.058C523.206 339.913 523.811 338.863 524.625 337.989C524.625 340.982 524.368 343.563 524.213 346.143H525.242L527.813 343.098C528.228 343.437 528.607 343.817 528.945 344.234C531.421 348.281 535.277 351.288 539.796 352.698C544.27 354.453 548.589 356.466 553.629 358.633C552.439 359.727 551.167 360.728 549.824 361.627C546.329 363.681 543.314 366.461 540.978 369.781C537.607 374.102 533.911 378.157 529.922 381.91C522.972 387.518 517.024 394.272 512.334 401.884C509.711 407.045 506.883 411.845 503.952 417.058ZM448.154 312.854C448.154 312.854 448.154 313.37 448.154 313.68C437.869 314.763 427.172 314.454 416.784 316.054C416.784 316.467 416.784 316.88 416.784 317.292L458.851 331.279C452.423 334.892 368.032 327.821 361.141 323.383C363.736 322.233 365.93 320.332 367.442 317.922C368.954 315.513 369.715 312.706 369.627 309.86C369.627 305.938 370.141 302.015 370.398 299.074C373.998 297.267 377.289 295.874 380.272 293.912C382.329 292.622 382.329 291.229 379.809 289.835C377.871 289.021 376.159 287.745 374.824 286.117C373.489 284.489 372.57 282.559 372.146 280.493C371.684 277.242 371.581 274.042 367.569 272.855C368.763 271.454 370.307 270.4 372.044 269.801C373.78 269.202 375.644 269.08 377.443 269.448C380.94 269.861 384.437 270.171 387.42 270.429C386.854 259.797 386.237 249.268 385.671 238.585L390.043 237.965C388.551 229.914 387.06 222.069 385.62 214.224H386.34C388.346 221.605 390.403 228.985 392.46 236.52L396.06 235.178C396.831 239.565 397.602 243.798 398.425 247.978H397.448C396.625 244.933 395.751 241.888 394.671 238.223L392.408 241.939L390.094 240.185C389.841 240.934 389.702 241.717 389.683 242.507C390.043 245.862 390.351 249.217 390.968 252.52C392.202 259.256 392.062 266.174 390.557 272.855C390.299 275.291 390.299 277.748 390.557 280.184C389.414 280.191 388.308 279.773 387.453 279.01C386.599 278.248 386.056 277.195 385.929 276.055C385.789 275.223 385.408 274.451 384.833 273.835C384.257 273.22 383.514 272.789 382.696 272.596C381.877 272.403 381.02 272.457 380.232 272.751C379.444 273.045 378.76 273.566 378.266 274.248C377.373 275.108 376.641 276.122 376.106 277.242C375.694 277.802 375.43 278.458 375.339 279.148C375.247 279.838 375.331 280.541 375.583 281.189C375.834 281.838 376.245 282.413 376.777 282.86C377.309 283.307 377.945 283.611 378.626 283.745C381.106 284.398 383.352 285.74 385.106 287.616C385.693 287.962 386.207 288.421 386.616 288.968C387.025 289.514 387.322 290.137 387.49 290.799C387.657 291.462 387.692 292.151 387.591 292.828C387.491 293.504 387.258 294.153 386.906 294.738C385.895 296.402 384.985 298.126 384.18 299.899C383.48 300.966 383.128 302.225 383.174 303.502C383.22 304.778 383.662 306.009 384.437 307.022C386.7 304.493 386.443 300.054 391.431 300.364C391.431 299.951 391.431 299.486 391.431 299.022L387.934 297.835L388.911 296.596C391.225 296.596 393.591 297.009 395.905 297.009C398.054 297.296 400.239 297.066 402.282 296.338C403.062 295.781 403.717 295.066 404.204 294.239C404.691 293.413 405 292.492 405.111 291.538C405.111 290.351 403.362 288.648 402.025 287.925C400.269 287.288 398.435 286.889 396.574 286.738C396.869 286.345 397.24 286.015 397.664 285.767C398.087 285.519 398.556 285.358 399.042 285.293C409.945 284.571 420.898 283.951 431.852 283.332C434.166 283.332 434.886 284.622 434.732 286.893C430.412 287.358 425.99 285.19 421.156 287.616L428.509 290.248C428.509 290.558 428.509 290.867 428.509 291.177C423.595 289.627 418.303 289.791 413.493 291.641C414.686 293.167 416.321 294.285 418.173 294.841C424.346 296.381 430.139 299.174 435.195 303.048C437.663 304.441 440.337 305.99 442.497 307.486L442.24 308.26C440.854 308.365 439.461 308.365 438.075 308.26C434.681 307.744 431.286 307.022 427.789 306.506C422.03 305.628 416.27 304.648 410.459 304.131C404.648 303.615 397.345 303.254 390.814 302.996C389.631 302.996 388.397 304.131 387.214 304.751L387.523 306.196L448.154 312.854ZM569.366 546.396L569.931 545.932C570.726 546.898 571.432 547.934 572.04 549.029C572.605 550.319 573.685 552.228 573.171 553.157C571.172 557.586 568.293 561.559 564.712 564.833C561.131 568.108 556.923 570.615 552.344 572.202C543.241 574.886 533.984 577.363 524.779 579.376C520.672 580.339 516.806 582.136 513.418 584.657C510.03 587.178 507.194 590.369 505.083 594.034C502.454 598.477 499.551 602.752 496.392 606.833C490.186 615.285 484.698 624.246 479.987 633.62C479.576 634.446 478.753 635.581 478.033 635.633C470.319 636.562 462.605 637.336 454.634 638.162C454.897 635.072 455.518 632.023 456.485 629.078C457.401 626.865 459.055 625.04 461.165 623.917C463.809 622.992 466.594 622.538 469.393 622.575C473.044 622.575 476.644 622.575 480.347 622.575C480.913 622.575 481.53 621.904 482.095 621.543C481.751 620.887 481.299 620.294 480.758 619.788C477.233 617.507 473.063 616.438 468.879 616.743L458.851 617.259L465.948 601.776L471.09 605.285C473.199 606.575 475.359 607.763 477.364 609.104C478.496 609.879 479.318 611.014 480.398 611.84C481.478 612.666 482.97 612.511 482.97 610.498C482.998 606.923 483.8 603.396 485.318 600.162C486.836 596.927 489.035 594.062 491.764 591.763C498.721 583.628 507.945 577.769 518.248 574.938C524.42 573.868 530.657 573.213 536.916 572.976C542.897 572.522 548.707 570.76 553.938 567.815C556.51 566.436 558.699 564.434 560.306 561.992C561.913 559.55 562.889 556.744 563.143 553.828C563.309 553.034 563.286 552.211 563.075 551.427C562.865 550.643 562.473 549.92 561.932 549.317C561.391 548.714 560.716 548.247 559.961 547.955C559.207 547.662 558.394 547.553 557.589 547.635C551.842 548.171 546.189 549.455 540.773 551.454C535.26 553.816 530.314 557.336 526.271 561.777C522.891 565.445 518.771 568.348 514.185 570.292C511.822 571.117 509.575 572.245 507.5 573.647C499.632 578.808 492.072 584.537 484.101 590.163C479.155 594.394 473.106 597.117 466.668 598.008C466.807 595.949 467.412 593.95 468.437 592.161C469.461 590.373 470.879 588.842 472.582 587.686C478.599 583.815 485.078 580.512 491.352 576.899C491.918 576.538 492.175 575.608 492.638 574.938C491.936 574.733 491.209 574.629 490.478 574.628C489.627 574.81 488.799 575.087 488.009 575.454C488.072 575.06 488.214 574.683 488.426 574.346C488.638 574.009 488.916 573.718 489.244 573.492C503.026 565.647 516.808 558.009 530.385 550.061C532.778 548.807 535.021 547.283 537.07 545.519C539.338 543.114 541.467 540.581 543.447 537.932C544.741 539.011 546.136 539.962 547.612 540.771C549.357 541.878 551.421 542.369 553.475 542.164C555.295 541.361 557.308 541.104 559.27 541.424C561.232 541.745 563.06 542.629 564.532 543.971C566.043 544.965 567.666 545.779 569.366 546.396ZM195.498 546.861C197.452 544.796 198.48 543.042 200.023 542.267C202.903 540.822 202.646 539.067 201.36 537.106C199.252 533.648 196.783 530.345 194.829 526.784C191.99 523.215 190.319 518.853 190.046 514.294C190.509 505.055 190.046 495.817 190.046 486.579C189.957 484.167 190.414 481.767 191.383 479.559C192.991 475.761 195.562 472.451 198.84 469.96C206.086 466.891 214.11 466.187 221.776 467.947C223.936 468.308 226.919 467.947 227.896 469.547C228.873 471.147 227.896 473.676 227.896 475.843C227.896 481.83 227.536 487.766 227.022 493.701C226.935 500.02 224.965 506.167 221.365 511.352C219.29 513.974 217.764 516.989 216.881 520.218C215.997 523.446 215.773 526.821 216.222 530.139C216.782 536.357 215.455 542.6 212.417 548.048C211.491 549.648 210.874 550.319 208.868 549.648C206.169 548.863 203.42 548.26 200.64 547.841C199.457 547.583 197.915 547.429 195.498 547.016V546.861ZM278.345 439.096C277.872 439.86 277.339 440.585 276.751 441.263C270.68 447.971 265.336 455.306 260.809 463.147C257.927 468.541 254.479 473.611 250.524 478.269C245.828 483.116 241.48 488.29 237.513 493.753C234.815 496.95 231.93 499.983 228.873 502.836C228.873 501.339 228.873 500.927 228.873 500.514C229.963 494.984 230.599 489.374 230.776 483.74C231.415 478.225 231.69 472.673 231.599 467.121C230.579 459.009 231.623 450.771 234.633 443.173C237.05 436.67 239.775 430.219 242.501 423.922C243.127 422.714 244.02 421.665 245.112 420.856C246.204 420.048 247.465 419.5 248.801 419.256C250.136 419.012 251.509 419.078 252.814 419.448C254.12 419.818 255.324 420.484 256.335 421.393C259.369 423.922 259.523 424.851 257.209 428.103C253.249 433.728 249.032 439.147 245.33 444.928C244.255 446.312 243.507 447.923 243.142 449.64C242.776 451.356 242.804 453.133 243.221 454.837C244.762 453.792 246.239 452.655 247.644 451.431C252.786 445.96 257.929 440.283 263.74 434.967C270.168 428.67 276.854 422.529 283.539 416.49C290.225 410.451 292.23 403.019 296.344 396.258L299.43 391.097C298.607 397.755 297.938 403.484 297.219 409.264C297.17 409.678 297.048 410.08 296.859 410.451C294.923 413.815 292.685 416.994 290.173 419.948C286.764 422.972 283.118 425.716 279.271 428.154C273.151 432.335 272.894 434.76 278.345 439.096ZM353.839 432.128C353.988 431.723 354.16 431.327 354.353 430.941C357.715 432.074 361.152 432.97 364.638 433.625C369.781 434.193 374.615 434.038 379.603 434.348C388.448 434.864 397.294 435.535 406.139 435.999C414.71 436.085 423.222 434.562 431.235 431.509C436.227 429.81 441.409 428.735 446.663 428.309C455.097 427.69 463.582 427.948 472.016 427.793C474.378 427.91 476.671 428.63 478.678 429.885C480.685 431.141 482.339 432.89 483.484 434.967C483.638 435.454 483.638 435.977 483.484 436.464C482.198 441.057 480.861 445.65 479.524 450.296C477.335 448.078 474.567 446.524 471.538 445.812C468.51 445.1 465.342 445.259 462.399 446.27C457.257 447.302 452.114 448.592 446.971 449.47C431.043 451.999 414.817 451.999 398.888 449.47C386.866 447.392 375.219 443.531 364.33 438.012C360.678 436.515 357.336 434.193 353.839 432.128ZM550.955 415.148C547.615 415.111 544.283 415.475 541.03 416.232C529.973 420.361 518.659 418.09 507.449 418.503C511.974 408.18 544.835 371.33 551.726 369.007C553.475 384.542 549.361 399.871 550.955 415.148ZM585.873 480.54L586.182 481.779C585.071 482.331 583.919 482.797 582.736 483.172C579.297 483.965 576.2 485.839 573.896 488.522C571.593 491.205 570.204 494.557 569.931 498.088C568.543 507.275 567.874 516.616 567.36 525.907C567.308 531.077 567.548 536.247 568.08 541.39C564.77 536.939 562.072 532.061 560.058 526.887C557.589 519.455 556.098 511.713 554.195 504.126C553.886 503.043 553.269 502.114 552.858 501.03L551.469 501.391C552.652 509.649 553.886 517.958 555.121 526.268L553.886 526.836C550.337 522.706 547.089 518.325 544.167 513.726C538.459 503.404 533.367 492.669 528.019 482.088C528.923 481.333 530.027 480.857 531.196 480.72C532.364 480.582 533.548 480.789 534.602 481.314L552.189 487.559C555.8 489.197 559.78 489.84 563.721 489.422C567.661 489.005 571.42 487.543 574.611 485.185C578.166 483.189 581.947 481.63 585.873 480.54ZM245.895 202.353C241.37 205.605 241.113 206.482 242.861 212.676C242.861 213.347 242.501 214.224 242.193 214.947C239.57 221.863 236.639 228.624 234.324 235.591C233.488 239.3 231.932 242.807 229.747 245.914C228.907 246.981 228.294 248.211 227.947 249.526C224.983 256.863 223.38 264.682 223.216 272.597C219.771 270.429 216.891 268.468 213.908 266.661C210.925 264.855 210.925 263.462 212.674 260.881C213.986 258.608 215.137 256.245 216.119 253.81C219.478 247.471 222.383 240.9 224.81 234.146C227.234 224.993 231.087 216.283 236.227 208.34C237.07 207.111 237.599 205.694 237.77 204.211C237.77 202.508 237.77 200.547 235.301 199.979C232.319 208.598 230.159 211.127 220.131 204.676C222.239 197.605 224.091 190.483 226.61 183.618C227.279 181.812 229.85 180.522 231.753 179.438C232.062 179.438 233.707 181.502 234.684 182.638L235.096 183.102C240.086 188.627 243.777 195.206 245.895 202.353ZM233.553 431.612L234.633 432.851C234.166 434.693 233.383 436.44 232.319 438.012C229.333 440.751 226.154 443.27 222.805 445.547C215.915 451.167 207.486 454.551 198.635 455.25C197.08 455.315 195.578 455.836 194.315 456.747C190.715 459.173 187.372 461.908 184.03 464.437C183.44 464.965 182.737 465.349 181.975 465.559C181.213 465.77 180.413 465.802 179.637 465.652C178.861 465.502 178.13 465.175 177.501 464.696C176.871 464.217 176.36 463.598 176.007 462.889C174.566 460.779 173.812 458.273 173.847 455.715C174.718 452.655 176.054 449.747 177.807 447.096C177.807 446.838 178.527 446.838 178.887 446.631C188.349 441.986 198.635 437.289 208.92 432.851C212.725 431.148 216.737 429.857 220.696 428.412C220.696 428.412 220.696 428.877 220.696 429.135C211.08 434.915 200.897 440.025 193.749 449.212C201.103 447.973 206.451 442.709 212.931 439.818C219.411 436.928 226.713 434.296 233.553 431.612ZM258.135 245.449C258.135 244.486 258.032 243.557 257.826 242.662C257.363 234.146 256.798 225.682 256.54 217.218C256.777 215.455 257.208 213.724 257.826 212.056C258.15 210.094 258.322 208.11 258.34 206.121C258.34 205.45 257.672 204.728 257.826 204.108C258.546 201.115 259.42 198.121 260.295 195.076C275.157 205.398 282.305 229.553 266.826 246.326C264.357 242.404 261.066 246.223 258.135 245.449ZM383.769 136.033C383.769 133.865 382.997 130.871 384.129 129.529C386.957 126.588 385.774 122.872 387.214 119.93C388.342 117.111 390.23 114.662 392.665 112.859C395.686 111.65 398.933 111.122 402.179 111.311C405.247 111.357 408.307 111.633 411.333 112.136L424.035 113.633C422.75 114.356 421.31 114.665 420.693 115.594C419.165 118.81 416.456 121.307 413.133 122.562C412.67 122.562 412.002 123.233 412.002 123.594C411.745 127.207 408.042 127.413 406.088 129.271C403.358 131.281 400.341 132.864 397.139 133.968C396.858 134.124 396.626 134.356 396.471 134.639C394.825 137.581 392.254 137.581 389.426 136.91C387.78 136.497 386.134 136.394 383.769 136.033ZM236.536 273.681C236.191 274.411 235.721 275.075 235.147 275.642C234.221 276.313 232.987 277.397 232.113 277.139C230.467 276.726 228.256 276.261 228.616 273.629C228.713 271.895 228.937 270.17 229.285 268.468C232.319 257.733 234.941 246.843 238.747 236.365C241.761 229.551 245.196 222.932 249.032 216.547H250.164C250.557 217.543 250.833 218.582 250.986 219.643C251.295 228.727 251.706 237.811 251.655 246.946C251.628 248.45 251.192 249.917 250.394 251.191C249.597 252.464 248.468 253.495 247.129 254.171C243.476 256.718 240.173 259.738 237.307 263.152C235.955 264.53 235.136 266.345 234.995 268.274C234.853 270.203 235.399 272.119 236.536 273.681ZM377.803 259.539C375.849 258.094 374.152 256.7 372.301 255.513C371.51 255.137 370.683 254.843 369.832 254.636C369.832 255.617 369.061 256.7 369.267 257.526C369.884 259.849 370.758 262.068 371.529 264.391L369.575 264.855C364.432 265.887 362.581 264.545 362.17 259.333C362.17 257.268 362.17 255.204 361.81 252.623C360.627 253.242 359.238 253.552 358.878 254.326C358.004 256.288 357.696 258.507 356.924 260.52C356.026 262.981 354.961 265.378 353.736 267.694C353.736 268.003 352.45 267.694 351.73 267.694C352.296 263.668 352.039 263.358 348.027 263.049C346.022 263.049 344.325 262.584 344.376 260.881L348.079 257.371C346.961 256.621 345.792 255.948 344.582 255.359C343.767 255.198 342.942 255.095 342.114 255.049C341.548 255.049 341.136 254.326 340.622 253.913C341.351 253.599 342.151 253.492 342.936 253.604C345.096 253.604 347.565 254.12 348.079 251.488C348.079 250.61 345.919 248.959 344.479 248.185C343.054 247.646 341.758 246.812 340.677 245.735C339.595 244.659 338.753 243.366 338.205 241.939C339.594 242.559 340.468 243.023 341.394 243.333C344.292 244.88 347.607 245.459 350.856 244.985C353.787 244.262 357.439 243.591 358.776 248.081C358.961 248.517 359.25 248.9 359.618 249.197C359.986 249.494 360.42 249.696 360.884 249.784C364.079 250.566 367.375 250.845 370.655 250.61C374.674 249.761 378.614 248.569 382.432 247.049C382.432 250.455 382.792 253.913 382.997 257.371C380.786 256.391 380.786 256.391 377.803 259.539ZM227.33 291.332C225.068 288.803 223.473 285.603 221.108 284.88C218.742 284.158 215.657 285.913 212.931 286.584C213.015 287.562 213.015 288.547 212.931 289.525C212.005 293.448 211.08 297.37 210.051 301.293C209.64 302.893 209.023 304.441 208.508 306.041C207.994 307.641 206.554 307.848 205.731 306.764C204.663 305.133 203.75 303.405 203.006 301.603L203.777 301.035L198.635 297.99C201.669 297.99 204.24 298.815 204.909 295.616C205.221 294.535 205.271 293.396 205.057 292.292C204.842 291.188 204.368 290.151 203.674 289.268C202.98 288.385 202.086 287.681 201.067 287.214C200.047 286.747 198.931 286.531 197.812 286.584C197.812 286.584 197.555 286.584 196.732 285.655C200.589 280.493 204.497 274.816 208.046 269.758L229.902 283.59C229.49 285.964 228.307 288.648 227.33 291.332ZM254.535 293.396C251.104 293.259 247.669 293.346 244.25 293.654C242.612 293.779 241.07 294.479 239.895 295.63C238.72 296.781 237.986 298.311 237.821 299.951C237.821 300.312 236.947 300.622 236.484 300.983C236.176 300.415 235.559 299.796 235.61 299.28C236.227 295.048 236.844 290.764 237.77 286.584C237.943 285.963 238.249 285.387 238.667 284.897C239.084 284.406 239.603 284.013 240.187 283.745C243.324 282.764 244.198 281.009 242.655 277.81C247.798 275.074 250.678 268.726 258.083 267.9C256.695 276.829 255.563 285.448 254.535 293.499V293.396ZM207.583 260.778C204.857 258.816 204.651 258.765 205.577 255.926C209.357 245.174 212.078 234.076 213.702 222.792C213.702 221.037 214.628 218.508 215.811 217.94C218.565 216.957 221.435 216.332 224.348 216.082C223.165 221.243 222.291 225.837 220.851 230.379C219.051 236.107 216.737 241.681 214.834 247.41C213.562 252.402 211.07 256.997 207.583 260.778ZM533.624 503.043C532.92 502.389 532.266 501.681 531.67 500.927C529.86 497.68 527.127 495.048 523.821 493.366C520.515 491.684 516.785 491.028 513.105 491.482C506.42 491.946 502.203 487.043 497.678 481.933C501.536 480.521 505.488 479.382 509.506 478.527C512.061 478.467 514.6 478.942 516.962 479.921C519.688 480.746 522.105 482.088 525.242 483.327C525.602 490.501 531.002 496.075 533.624 503.043ZM424.91 159.309C416.228 160.516 407.882 163.484 400.379 168.032C399.567 165.394 399.428 162.593 399.976 159.888C400.524 157.182 401.742 154.658 403.516 152.548C403.868 152.359 404.252 152.236 404.648 152.187C408.558 151.488 412.509 151.04 416.476 150.845C423.727 150.845 424.807 152.084 425.064 158.638C425.065 158.871 425.012 159.101 424.91 159.309ZM385.311 348.208C385.288 348.465 385.288 348.724 385.311 348.982C382.072 348.982 378.832 348.982 375.592 348.982C371.118 348.982 366.695 348.259 362.221 347.64C361.09 347.64 359.29 346.505 359.084 345.576C358.107 341.189 357.541 336.647 356.719 331.486C366.695 334.324 376.26 334.789 385.106 338.35C376.56 337.264 367.905 337.385 359.393 338.711C368.407 340.733 377.12 343.926 385.311 348.208ZM470.782 215.514C472.016 217.011 472.685 217.94 473.404 218.714C476.258 222.43 479.576 225.76 483.278 228.624C485.812 230.2 488.002 232.275 489.717 234.723C491.431 237.171 492.635 239.942 493.255 242.869C493.666 244.314 493.564 245.088 491.764 244.985C489.896 244.987 488.051 244.567 486.368 243.753C484.685 242.94 483.207 241.755 482.044 240.288C480.141 237.914 478.29 235.54 476.644 233.062C472.638 228.118 470.555 221.883 470.782 215.514ZM171.122 471.043C174.196 473.735 177.406 476.267 180.738 478.63C182.178 479.508 182.693 480.024 182.281 481.624C181.098 486.062 180.018 490.501 178.938 494.94C177.858 499.378 176.984 503.662 175.956 507.997C175.736 508.908 175.461 509.804 175.133 510.681H174.516C173.333 497.469 172.253 484.462 171.122 471.043ZM252.272 199.824H250.935C248.672 195.489 246.307 191.257 244.25 186.87C242.193 182.483 242.038 181.709 246.564 178.664C246.786 178.642 247.01 178.642 247.232 178.664C248.646 180.561 250.562 182.022 252.762 182.88C254.962 183.738 257.358 183.958 259.677 183.515C256.952 189.244 254.638 194.56 252.272 199.824ZM293.413 462.631H293.773C293.773 465.469 293.464 468.256 293.773 471.043C294.082 473.83 294.133 476.927 294.081 479.817C294.093 480.332 293.993 480.843 293.789 481.315C293.585 481.788 293.281 482.21 292.899 482.553C290.003 483.293 286.959 483.201 284.113 482.289C281.267 481.376 278.734 479.679 276.802 477.392C276.955 476.767 277.24 476.182 277.637 475.677C278.035 475.172 278.536 474.758 279.106 474.465C279.677 474.171 280.304 474.004 280.944 473.975C281.585 473.945 282.224 474.055 282.819 474.295C284.563 474.535 286.335 474.149 287.822 473.204C289.309 472.26 290.415 470.818 290.944 469.134C291.922 467.431 292.744 465.056 293.67 462.631H293.413ZM245.638 518.836C244.079 520.859 241.879 522.289 239.402 522.889C236.925 523.489 234.318 523.225 232.01 522.139C224.553 519.042 225.119 517.391 228.667 510.475L245.638 518.836ZM266.209 170.664L270.631 169.116L274.437 167.619C276.087 166.782 277.991 166.604 279.766 167.122C281.541 167.639 283.055 168.813 284.002 170.406C286.676 174.225 289.145 178.148 291.613 181.915C289.97 181.643 288.396 181.047 286.984 180.161C285.572 179.276 284.348 178.117 283.385 176.754C280.094 172.47 278.808 172.264 273.82 173.864C272.294 174.118 270.729 173.826 269.397 173.038C268.317 172.78 267.648 171.696 266.569 170.664H266.209ZM349.159 327.563C350.839 336.888 352.553 346.281 354.302 355.743L348.49 356.93C349.519 346.814 346.433 337.111 349.159 327.563ZM239.776 530.5C238.22 532.513 236.033 533.939 233.569 534.548C231.105 535.157 228.508 534.912 226.199 533.855C222.188 531.481 221.571 529.055 223.988 523.532C227.536 529.519 234.17 528.229 239.776 530.5ZM505.392 266.507C506.62 273.695 508.926 280.656 512.231 287.151C512.694 288.029 512.231 289.422 512.231 290.558C511.203 289.938 509.711 289.629 509.248 288.7C507.191 284.519 505.494 280.132 503.592 275.848C501.689 271.565 504.26 269.603 505.392 266.507ZM512.385 297.474L515.317 293.706L533.367 315.176C533.016 315.209 532.662 315.161 532.333 315.036C532.003 314.911 531.706 314.712 531.465 314.454C529.202 312.183 527.299 308.931 524.625 307.848C519.714 305.521 515.482 301.966 512.334 297.525L512.385 297.474ZM286.676 161.993C288.452 162.216 290.186 162.703 291.819 163.438C294.229 165.353 296.514 167.422 298.658 169.632C298.825 169.922 298.913 170.251 298.913 170.586C298.913 170.922 298.825 171.251 298.658 171.541C297.984 172.592 297.171 173.547 296.241 174.38C294.441 176.238 292.744 175.928 291.664 173.554L286.676 161.993ZM516.191 326.428C514.7 326.118 513.671 326.015 512.745 325.705C506.471 323.744 506.471 323.744 506.934 317.292C507.134 316.453 507.427 315.64 507.809 314.867C508.683 315.383 509.814 315.641 510.277 316.363C512.334 319.305 514.083 322.712 516.191 326.428ZM483.433 422.528C480.398 417.78 475.462 414.322 473.456 407.974L488.884 420.825L483.433 422.528ZM313.263 353.266L314.086 353.988C312.543 357.704 311.001 361.42 309.406 365.136H308.584C308.584 361.42 303.441 359.975 305.55 355.433L313.263 353.266ZM299.996 425.522C299.636 427.535 299.378 429.599 298.916 431.561C297.606 434.893 296.641 438.352 296.036 441.883C295.266 445.896 293.614 449.687 291.202 452.979C292.346 443.328 295.332 433.989 299.996 425.47V425.522ZM294.853 338.092V338.866L263.997 350.169C273.379 344.259 283.771 340.147 294.647 338.04L294.853 338.092ZM227.073 544.538L219.976 554.861H219.154C219.719 550.319 220.336 545.829 220.954 540.874L227.073 544.538ZM494.489 318.118L498.758 309.912C499.375 314.093 499.889 317.602 500.455 321.783L489.141 318.789V317.602L494.489 318.118ZM411.23 270.739C407.425 267.023 402.128 264.391 400.945 260.416C403.01 262.195 405.291 263.704 407.733 264.907C410.55 265.677 413.454 266.076 416.373 266.094L411.23 270.739ZM481.478 467.379L469.856 466.398L480.656 459.792C480.913 462.631 481.118 464.798 481.478 467.379ZM389.426 156.574L388.706 155.748C389.786 152.91 390.968 150.071 392.254 146.819C393.54 149.452 394.517 151.464 395.905 154.148L389.426 156.574ZM184.75 531.635C182.333 531.635 180.275 531.945 178.218 531.945C177.653 531.945 176.624 531.377 176.573 531.016C176.521 530.655 176.83 529.158 177.344 528.9C179.504 527.919 181.87 527.197 184.441 526.268C184.544 528.384 184.647 529.829 184.75 531.635ZM399.505 280.08C399.505 277.758 399.248 275.642 399.145 274.042L406.705 274.816C406.139 275.539 405.059 276.261 404.802 277.242C403.979 280.08 402.076 280.493 399.505 280.08ZM480.758 637.646C480.758 638.317 481.016 638.936 481.17 639.607L463.222 643.478L462.914 642.136L480.758 637.646ZM355.021 293.499C354.147 301.241 353.222 308.983 352.347 316.621H351.165C351.384 308.773 352.682 300.992 355.021 293.499ZM347.77 377.884C347.77 374.478 347.77 371.072 348.027 367.562C348.109 367.136 348.286 366.733 348.544 366.385C348.802 366.036 349.136 365.751 349.519 365.549C351.525 364.982 353.582 364.775 356.153 364.311C347.77 372.723 349.107 370.349 347.77 377.884ZM331.623 368.594C331.755 368.431 331.875 368.259 331.983 368.078L341.599 367.562C341.599 369.369 341.599 370.865 341.908 373.136L331.623 368.594ZM239.776 169.632C241.061 171.128 242.604 172.109 242.501 172.986C242.398 173.864 241.061 174.999 240.238 175.98C239.033 175.147 237.958 174.138 237.05 172.986C236.947 172.522 238.541 171.077 239.776 169.632ZM244.918 297.422C249.804 296.854 250.061 297.009 251.244 300.777C248.518 300.932 245.792 301.241 244.918 297.422ZM411.282 278.893L419.767 272.029C419.319 273.96 418.241 275.685 416.703 276.929C415.165 278.173 413.257 278.864 411.282 278.893ZM247.027 209.527C246.999 209.201 246.999 208.873 247.027 208.547C247.681 207.89 248.386 207.286 249.135 206.74C249.958 206.173 250.832 205.76 251.706 205.244C251.98 205.444 252.273 205.617 252.581 205.76C252.272 206.947 252.581 208.805 251.604 209.115C250.116 209.531 248.565 209.671 247.027 209.527ZM203.057 573.08L201.977 572.357C203.777 569.157 205.526 565.957 207.12 562.757L208.303 563.377L203.057 573.08ZM367.672 355.433C362.53 356.62 361.141 356.001 360.473 351.717L367.672 355.433ZM449.954 274.971L450.623 274.506L455.148 282.609L453.965 283.229L449.954 274.971ZM490.427 247.565C488.854 248.398 487.121 248.879 485.346 248.977C483.571 249.075 481.795 248.787 480.141 248.133L490.427 247.565ZM220.748 294.016C221.288 294.431 221.695 294.996 221.92 295.641C222.145 296.286 222.178 296.982 222.014 297.645C221.85 298.308 221.497 298.909 220.998 299.373C220.499 299.838 219.876 300.146 219.205 300.261C219.514 298.351 220.079 296.493 220.696 294.325L220.748 294.016ZM620.329 439.302H619.043L620.843 430.27H621.563C621.1 433.367 620.638 436.36 620.329 439.302Z" fill="#147FB0"/>
</svg>
